<svg width="24" height="24" viewBox="0 0 24 24" fill="none" xmlns="http://www.w3.org/2000/svg">
<g clip-path="url(#clip0_146_576)">
<path d="M20.84 6.61012C20.3292 6.09912 19.7228 5.69376 19.0554 5.4172C18.3879 5.14064 17.6725 4.99829 16.95 4.99829C16.2275 4.99829 15.5121 5.14064 14.8446 5.4172C14.1772 5.69376 13.5708 6.09912 13.06 6.61012L12 7.67012L10.94 6.61012C9.9083 5.57842 8.50903 4.99883 7.05 4.99883C5.59096 4.99883 4.19169 5.57842 3.16 6.61012C2.1283 7.64181 1.54871 9.04108 1.54871 10.5001C1.54871 11.9591 2.1283 13.3584 3.16 14.3901L4.22 15.4501L12 23.2301L19.78 15.4501L20.84 14.3901C21.351 13.8794 21.7563 13.2729 22.0329 12.6055C22.3095 11.938 22.4518 11.2226 22.4518 10.5001C22.4518 9.77763 22.3095 9.06222 22.0329 8.39476C21.7563 7.7273 21.351 7.12087 20.84 6.61012Z" stroke="white" stroke-width="2" stroke-linecap="round" stroke-linejoin="round"/>
</g>
<defs>
<clipPath id="clip0_146_576">
<rect width="24" height="24" fill="white"/>
</clipPath>
</defs>
</svg>
