<svg width="36" height="38" viewBox="0 0 36 38" fill="none" xmlns="http://www.w3.org/2000/svg">
<path fill-rule="evenodd" clip-rule="evenodd" d="M20.4481 1.17982C21.9204 1.87337 23.0626 3.2229 23.4271 4.93756L24.6247 10.572C25.0344 12.4989 25.0696 14.466 24.7494 16.3719C24.8293 16.3844 24.9096 16.3948 24.9903 16.4033C25.3692 14.7604 25.4787 13.0513 25.2991 11.3428L24.697 5.61407C24.4734 3.48657 23.0052 1.79117 21.0919 1.17531C20.9977 1.17026 20.9028 1.1677 20.8073 1.1677C20.6865 1.1677 20.5668 1.17178 20.4481 1.17982ZM20.1339 1.21061C21.6829 1.84475 22.9014 3.20906 23.2757 4.96974L24.4734 10.6042C24.8788 12.5117 24.9139 14.4588 24.5969 16.3454C24.5307 16.3328 24.4648 16.3188 24.3992 16.3035C24.6202 14.168 24.398 11.9893 23.7218 9.90802L21.9418 4.42966C21.4982 3.06433 20.5613 1.99707 19.3926 1.36106C19.6331 1.29371 19.8807 1.24312 20.1339 1.21061ZM20.1546 1.05205C20.2674 1.03844 20.3814 1.02831 20.4962 1.02177C20.2804 0.979607 20.0604 0.950832 19.8372 0.936265C19.9444 0.971582 20.0502 1.01021 20.1546 1.05205ZM19.2263 0.932098C19.4343 0.975707 19.6385 1.03184 19.8382 1.09982C19.6186 1.13967 19.4038 1.19282 19.1944 1.2584C18.9972 1.16142 18.7942 1.0764 18.5864 1.00393C18.7037 0.983507 18.8225 0.966907 18.9427 0.954273C19.0375 0.944298 19.1321 0.936932 19.2263 0.932098ZM19.2385 0.776548C19.8921 0.74544 20.5269 0.833265 21.1204 1.02188C23.9518 1.18402 26.1978 3.53145 26.1978 6.40346V12.1638C26.1978 13.6193 25.9934 15.0538 25.6004 16.4289H30.2859C33.2629 16.4289 35.6764 18.8423 35.6764 21.8194C35.6764 22.5873 35.5159 23.3176 35.2265 23.9787C35.121 24.6243 34.9031 25.2267 34.5953 25.7678C34.4229 26.399 34.1432 26.9755 33.7804 27.4817C33.5431 28.0908 33.2052 28.6343 32.792 29.0994C32.4922 29.6813 32.0987 30.1873 31.6384 30.6072C31.2793 31.1545 30.8349 31.6165 30.3333 31.9859C29.919 32.4923 29.429 32.9053 28.8917 33.22C28.4269 33.6803 27.8966 34.0396 27.3294 34.2965C26.8193 34.7055 26.2544 35.0074 25.6638 35.2037C25.1134 35.5574 24.5198 35.7988 23.9115 35.9323C23.3272 36.2264 22.7118 36.4044 22.0929 36.4735C21.481 36.705 20.8503 36.8176 20.2276 36.8217C19.5949 36.9879 18.9559 37.034 18.3362 36.9729C17.6896 37.0722 17.0493 37.0512 16.4394 36.9257C15.7859 36.9568 15.1514 36.8689 14.5579 36.6804C11.7264 36.5184 9.48019 34.1709 9.48019 31.2988V26.496C9.48019 24.6989 9.79169 22.934 10.3849 21.2733H5.39052C2.41342 21.2733 0 18.8599 0 15.8828C0 15.1155 0.160325 14.3857 0.449308 13.7248C0.554717 13.0791 0.772558 12.4764 1.08043 11.935C1.25276 11.3039 1.53233 10.7275 1.89499 10.2214C2.13257 9.6111 2.47134 9.06651 2.88552 8.60077C3.18532 8.0196 3.5786 7.51418 4.03847 7.09476C4.39727 6.54808 4.84112 6.08645 5.34222 5.71731C5.75631 5.21084 6.24619 4.79791 6.78336 4.48303C7.24827 4.02249 7.77877 3.66296 8.34611 3.40594C8.85669 2.99647 9.42202 2.69436 10.0133 2.4981C10.5637 2.14447 11.1573 1.90324 11.7654 1.76988C12.3499 1.47565 12.9654 1.29772 13.5844 1.22865C14.1963 0.997148 14.827 0.884557 15.4497 0.88054C16.0825 0.714232 16.7216 0.668182 17.3414 0.72929C17.9881 0.630032 18.6285 0.651015 19.2385 0.776548ZM17.9534 0.825557C18.1769 0.816698 18.3988 0.822315 18.6178 0.841698C18.5043 0.860207 18.392 0.882198 18.2813 0.90754C18.1729 0.87684 18.0636 0.849482 17.9534 0.825557ZM16.731 0.858948C16.5112 0.862548 16.2899 0.88014 16.0685 0.912307C16.1807 0.924582 16.2924 0.940357 16.4032 0.959582C16.5107 0.922807 16.62 0.889215 16.731 0.858948ZM16.7168 1.02356C16.8313 0.99099 16.9476 0.962074 17.0658 0.936957C17.1591 0.917123 17.2524 0.899915 17.3454 0.885273C17.5569 0.906907 17.7659 0.941382 17.9715 0.98814C17.7574 1.05071 17.5494 1.12601 17.348 1.21309C17.1419 1.13724 16.931 1.07391 16.7168 1.02356ZM16.1036 1.07211C15.8942 1.04709 15.6826 1.03465 15.47 1.03524C15.3789 1.05955 15.2879 1.08642 15.1971 1.11592C15.0824 1.15322 14.9697 1.19412 14.8593 1.23844C15.0777 1.26613 15.294 1.3071 15.507 1.361C15.6981 1.25335 15.8973 1.15672 16.1036 1.07211ZM15.7223 1.4202C15.9434 1.30435 16.175 1.20342 16.4159 1.119C16.6634 1.16385 16.9072 1.2264 17.1452 1.30589C16.9067 1.42109 16.6784 1.55313 16.462 1.70034C16.2223 1.5889 15.9749 1.49532 15.7223 1.4202ZM15.3149 1.47449C15.0699 1.42028 14.8209 1.38354 14.5699 1.36482C14.3392 1.47397 14.1194 1.59857 13.9115 1.73692C14.1708 1.78523 14.4265 1.85247 14.6767 1.93827C14.8766 1.76921 15.0898 1.614 15.3149 1.47449ZM14.8454 1.9993C15.0589 1.82496 15.2874 1.66664 15.5292 1.52661C15.7978 1.59795 16.0608 1.69056 16.3154 1.80368C16.0761 1.97834 15.8523 2.17199 15.6459 2.38217C15.3888 2.23195 15.1209 2.10416 14.8454 1.9993ZM14.7097 2.11401C14.4807 2.31441 14.2702 2.53385 14.0804 2.76927C14.3758 2.91336 14.6603 3.08583 14.9298 3.28646C15.1073 3.00533 15.3103 2.74113 15.5359 2.49739C15.2709 2.34502 14.9944 2.21703 14.7097 2.11401ZM14.5416 2.05637C14.3219 2.25506 14.1196 2.47103 13.9364 2.70161C13.6649 2.57905 13.3851 2.47993 13.1001 2.40442C13.2942 2.20875 13.5048 2.02746 13.7306 1.86293C14.0053 1.90582 14.2766 1.97044 14.5416 2.05637ZM13.6913 1.70055C13.8701 1.57349 14.058 1.45656 14.2545 1.35083C14.0437 1.34784 13.832 1.35759 13.6208 1.38037C13.5326 1.41409 13.4449 1.45034 13.3577 1.48917C13.2474 1.53829 13.1396 1.59075 13.0344 1.64638C13.2544 1.65109 13.4739 1.66921 13.6913 1.70055ZM12.7599 1.80231C13.0114 1.79469 13.2629 1.8052 13.5121 1.83349C13.3028 1.99576 13.107 2.17236 12.9259 2.36136C12.6683 2.30219 12.4069 2.26207 12.1441 2.24112C12.3364 2.08181 12.5419 1.93495 12.7599 1.80231ZM12.7144 1.649C12.8119 1.59066 12.9119 1.53508 13.0142 1.4824C12.7999 1.53163 12.5872 1.59483 12.3773 1.67233C12.4895 1.66102 12.6019 1.65325 12.7144 1.649ZM11.8175 1.91697C12.0253 1.87222 12.2348 1.84041 12.4448 1.82136C12.2604 1.94701 12.0859 2.08292 11.9213 2.22795C11.7018 2.21951 11.4817 2.22441 11.2624 2.24271C11.3611 2.17641 11.4628 2.113 11.5674 2.05264C11.65 2.00492 11.7334 1.9597 11.8175 1.91697ZM11.2249 2.0818C11.0171 2.15313 10.8122 2.23819 10.6116 2.33717C10.722 2.31418 10.833 2.29472 10.9444 2.27874C11.0353 2.21056 11.1288 2.14486 11.2249 2.0818ZM10.6942 2.47832C10.524 2.62259 10.3645 2.77605 10.2159 2.93752C9.99669 2.95209 9.77836 2.97997 9.56211 3.02112C9.65336 2.94486 9.74786 2.87117 9.84552 2.80022C9.92286 2.74404 10.0012 2.69028 10.0804 2.63894C10.2824 2.57273 10.4874 2.51922 10.6942 2.47832ZM11.0057 2.42646C10.8027 2.58119 10.6136 2.74876 10.4389 2.92732C10.7025 2.92069 10.9667 2.93326 11.2291 2.96518C11.3895 2.75827 11.5658 2.56216 11.757 2.37888C11.5062 2.37679 11.255 2.39261 11.0057 2.42646ZM11.9774 2.38534C11.7699 2.57257 11.5794 2.7749 11.4069 2.9898C11.6981 3.03509 11.9867 3.10439 12.2694 3.19787C12.4275 2.94942 12.6062 2.71349 12.8039 2.49292C12.5314 2.4352 12.2549 2.39928 11.9774 2.38534ZM12.9771 2.53268C12.7703 2.75592 12.5839 2.99615 12.4198 3.25009C12.7286 3.36254 13.0297 3.50434 13.3187 3.67573C13.4659 3.37762 13.6401 3.09366 13.8391 2.82768C13.5595 2.70381 13.271 2.60541 12.9771 2.53268ZM13.9829 2.89402C13.7784 3.16373 13.6004 3.4528 13.4513 3.75694C13.7054 3.91779 13.9495 4.10217 14.1806 4.31023L14.3674 4.47845C14.4898 4.10691 14.6517 3.75193 14.8487 3.41907C14.5747 3.21391 14.2844 3.03881 13.9829 2.89402ZM14.9721 3.51442C14.7738 3.85237 14.6126 4.21359 14.4935 4.59196L15.4934 5.49229C15.561 5.09529 15.672 4.71308 15.8214 4.35072L15.6056 4.1111C15.4079 3.89153 15.1959 3.69259 14.9721 3.51442ZM15.9366 4.47872C15.7939 4.83974 15.69 5.22043 15.6304 5.61561L18.4614 8.1646C20.735 10.2118 22.3352 12.8678 23.0958 15.7845C23.1099 15.7927 23.1239 15.8008 23.1381 15.8088C22.6178 13.0693 21.3569 10.4985 19.46 8.39185L15.9366 4.47872ZM23.3131 15.9036C22.8023 13.0901 21.5195 10.4478 19.575 8.28827L16.0023 4.32037C16.1603 3.95649 16.3584 3.61406 16.5909 3.29867C16.7949 3.49932 16.9851 3.71941 17.1589 3.95853L20.5447 8.61876C22.1229 10.7908 23.0901 13.3173 23.3844 15.9394C23.3604 15.9277 23.3367 15.9158 23.3131 15.9036ZM23.1741 16.0054C23.1654 16.0008 23.1569 15.9962 23.1483 15.9915C23.1658 16.0628 23.1829 16.1343 23.1994 16.2059C23.2028 16.2086 23.2061 16.2113 23.2094 16.214C23.1981 16.1444 23.1864 16.0748 23.1741 16.0054ZM23.3876 16.3511C23.3745 16.2649 23.3608 16.1789 23.3463 16.0931C23.3653 16.1023 23.3844 16.1114 23.4035 16.1204C23.4122 16.2068 23.4201 16.2933 23.4274 16.3798C23.414 16.3703 23.4008 16.3608 23.3876 16.3511ZM22.9043 15.6668C22.1354 12.8408 20.568 10.2697 18.3579 8.2796L15.6057 5.80163C15.5831 5.99911 15.5715 6.19993 15.5715 6.40346V6.87235L17.3411 8.15801C19.9349 10.0426 21.8632 12.6694 22.8937 15.66C22.8973 15.6623 22.9008 15.6646 22.9043 15.6668ZM22.5863 15.2652C21.5329 12.4892 19.6886 10.0549 17.2501 8.28326L15.5715 7.0636V7.89051L16.2263 8.2686C19.0404 9.89326 21.2541 12.3477 22.5863 15.2652ZM15.4168 7.80118V6.95118L14.2539 6.1064C14.2521 6.3052 14.2616 6.50618 14.2829 6.70868L14.3319 7.17485L15.4168 7.80118ZM14.3519 7.3651L15.4168 7.97993V8.62676C15.3214 8.58193 15.2254 8.53801 15.1289 8.49501L14.4383 8.1876L14.3519 7.3651ZM14.1662 7.07918L14.1289 6.72485C14.1031 6.47921 14.0943 6.23571 14.1014 5.9955L12.99 5.18807C12.9254 5.57084 12.903 5.96474 12.9268 6.36361L14.1662 7.07918ZM12.9413 6.5507L14.1862 7.26943L14.275 8.11493L13.1304 7.60535L13.033 7.14693C12.9907 6.94768 12.9603 6.74868 12.9413 6.5507ZM12.7672 6.27148C12.7508 5.86916 12.7799 5.47227 12.8507 5.08683L12.5899 4.89742C12.3508 4.72365 12.1019 4.57307 11.8458 4.44525C11.722 4.81698 11.6394 5.20376 11.6016 5.59853L12.7672 6.27148ZM11.5881 5.76941L12.7779 6.45637C12.7959 6.6961 12.8303 6.93743 12.8816 7.1791L12.9557 7.52751L11.648 6.94526C11.5827 6.55102 11.5638 6.15688 11.5881 5.76941ZM11.4547 5.51372C11.4971 5.12495 11.5817 4.74414 11.7052 4.37767C11.3945 4.234 11.0743 4.12309 10.7492 4.04422C10.6053 4.35047 10.4912 4.6702 10.4085 4.99863C10.6909 5.10317 10.9682 5.23284 11.2377 5.38843L11.4547 5.51372ZM10.3728 5.15046C10.6409 5.25083 10.9043 5.3746 11.1604 5.52246L11.4389 5.6833C11.4088 6.07407 11.4214 6.47188 11.4797 6.87035L10.2504 6.32305C10.2468 5.92645 10.2885 5.53312 10.3728 5.15046ZM10.262 4.94677C10.344 4.62464 10.4554 4.31071 10.5948 4.00922C10.2956 3.94621 9.99294 3.90999 9.69044 3.89997C9.53452 4.16132 9.40219 4.435 9.29436 4.71751C9.61986 4.76323 9.94377 4.83929 10.262 4.94677ZM9.24019 4.86631C9.57177 4.91075 9.90186 4.98757 10.2259 5.09796C10.1414 5.47536 10.097 5.86295 10.0954 6.25405L9.86652 6.15212C9.58227 6.02556 9.29286 5.92558 9.00119 5.85112C9.04902 5.51585 9.12911 5.18593 9.24019 4.86631ZM9.13644 4.69771C9.23952 4.42181 9.36519 4.15392 9.51277 3.89711C9.23411 3.89732 8.95611 3.9197 8.68161 3.96381C8.51769 4.19006 8.37344 4.42754 8.24927 4.6736C8.54369 4.65729 8.84044 4.66505 9.13644 4.69771ZM8.17194 4.83359C8.47394 4.8119 8.77877 4.81627 9.08294 4.84766C8.97594 5.16206 8.89786 5.48592 8.85002 5.81487C8.52219 5.74123 8.19211 5.69944 7.86361 5.688C7.94127 5.39579 8.04427 5.10979 8.17194 4.83359ZM8.07027 4.6865C8.18419 4.45078 8.31577 4.22234 8.46478 4.00334C8.21877 4.0535 7.97627 4.12127 7.73927 4.20632C7.57294 4.39983 7.42294 4.60299 7.28927 4.81391C7.54577 4.75256 7.80686 4.70989 8.07027 4.6865ZM7.17527 5.00265C7.44369 4.93005 7.71786 4.87869 7.99494 4.84932C7.87511 5.12015 7.77811 5.39969 7.70444 5.68481C7.40661 5.68329 7.11069 5.7066 6.81961 5.75361C6.91727 5.49597 7.03586 5.24476 7.17527 5.00265ZM7.07327 4.87031C7.18494 4.68154 7.30902 4.49832 7.44544 4.32188C7.25152 4.40495 7.06211 4.49999 6.87836 4.60682C6.81169 4.67332 6.74644 4.74196 6.68269 4.81276C6.60186 4.90258 6.52469 4.99443 6.45111 5.08813C6.65403 5.0029 6.86186 4.93018 7.07327 4.87031ZM6.26369 5.34231C6.49044 5.23298 6.72444 5.14025 6.96369 5.06466C6.83844 5.29798 6.73152 5.53887 6.64294 5.78515C6.38352 5.83594 6.12844 5.90564 5.87982 5.99343C5.99069 5.76976 6.11861 5.5521 6.26369 5.34231ZM6.15977 5.22077C6.22511 5.1279 6.29369 5.03655 6.36561 4.94689C6.19011 5.07895 6.02161 5.22311 5.86154 5.37917C5.95944 5.32319 6.05886 5.27037 6.15977 5.22077ZM5.44962 5.83048C5.62115 5.7051 5.79952 5.59083 5.98352 5.48799C5.86637 5.67766 5.76217 5.87276 5.67087 6.0721C5.46699 6.15368 5.26804 6.24766 5.07524 6.35356C5.13852 6.25277 5.20563 6.15344 5.27662 6.05573C5.33261 5.97866 5.39031 5.90358 5.44962 5.83048ZM4.97528 6.2223C4.81467 6.37182 4.66237 6.5326 4.51961 6.70435C4.611 6.63851 4.70432 6.57567 4.79937 6.51588C4.85457 6.41679 4.91319 6.31888 4.97528 6.2223ZM4.652 6.80001C4.47984 6.92143 4.3145 7.0536 4.1571 7.1961C4.10559 7.27518 4.05591 7.35618 4.00814 7.43885C3.94789 7.54326 3.89163 7.64885 3.83933 7.75543C4.01995 7.63001 4.20792 7.51585 4.40208 7.41351C4.47206 7.20576 4.5553 7.00085 4.652 6.80001ZM4.33529 7.62635C4.11717 7.74993 3.90773 7.8891 3.70884 8.04293C3.61036 8.27851 3.53037 8.51818 3.46838 8.76018C3.6932 8.62276 3.92812 8.5016 4.17123 8.3981C4.2067 8.13868 4.26127 7.88068 4.33529 7.62635ZM4.33747 8.33051C4.37949 8.0581 4.44331 7.78768 4.52934 7.52176C4.77662 7.3951 5.03391 7.28801 5.29869 7.20168C5.23773 7.4916 5.20096 7.78518 5.18819 8.07943C4.89675 8.13985 4.61229 8.2241 4.33747 8.33051ZM4.14988 8.57618C3.89558 8.68968 3.6509 8.8231 3.41822 8.97493C3.36045 9.24826 3.32524 9.52393 3.31192 9.79926C3.57412 9.66468 3.8482 9.55118 4.13172 9.46068C4.11367 9.16668 4.11956 8.87085 4.14988 8.57618ZM4.28407 9.41451C4.26764 9.1126 4.27722 8.80876 4.31336 8.5066C4.59372 8.39268 4.88482 8.30268 5.18362 8.2386C5.17897 8.57068 5.20485 8.90277 5.26101 9.23043C4.92662 9.26168 4.59988 9.32393 4.28407 9.41451ZM4.14382 9.61943C3.85335 9.71443 3.57326 9.83435 3.30635 9.97685C3.30198 10.2812 3.32422 10.5843 3.37211 10.8829C3.67672 10.7598 3.99516 10.6638 4.32444 10.5978C4.23435 10.2778 4.17391 9.95018 4.14382 9.61943ZM4.47725 10.5693C4.38458 10.2437 4.32358 9.90968 4.29505 9.57251C4.61596 9.47826 4.94865 9.41418 5.28947 9.38326C5.36572 9.76235 5.48284 10.1344 5.64047 10.4923H5.39052C5.07923 10.4923 4.7741 10.5188 4.47725 10.5693ZM4.36872 10.7468C4.03301 10.8132 3.70884 10.9117 3.39954 11.0389C3.67559 12.4809 4.55326 13.7993 5.92461 14.5911L10.9131 17.4713C11.2677 17.6759 11.592 17.9223 11.8805 18.2032C11.9379 18.1123 11.9963 18.022 12.0556 17.9323C11.7653 17.5321 11.4116 17.1761 11.0042 16.8801L6.34394 13.4943C5.36996 12.7866 4.70252 11.8138 4.36872 10.7468ZM12.1472 17.7955C11.8539 17.4009 11.5002 17.0492 11.0951 16.7549L6.43494 13.3691C5.49446 12.6858 4.84826 11.748 4.52216 10.7188C4.8046 10.6716 5.09469 10.6471 5.39052 10.6471H5.71159C6.00727 11.2645 6.42636 11.8356 6.96669 12.3221L11.2474 16.1765C11.6878 16.573 12.0454 17.0442 12.3075 17.563C12.2534 17.6401 12.1999 17.7175 12.1472 17.7955ZM12.151 18.0688C12.0974 18.1506 12.0445 18.2329 11.9925 18.3158C12.018 18.3423 12.0432 18.369 12.0681 18.3961C12.1124 18.3131 12.1574 18.2304 12.2033 18.1482C12.1862 18.1215 12.1687 18.0951 12.151 18.0688ZM12.2889 17.9965C12.2739 17.9741 12.2588 17.9518 12.2434 17.9296C12.2899 17.8603 12.3369 17.7914 12.3845 17.7229C12.3939 17.7434 12.4033 17.764 12.4124 17.7847C12.3706 17.855 12.3294 17.9256 12.2889 17.9965ZM12.2966 18.2991C12.2564 18.3723 12.2169 18.4457 12.1779 18.5194C12.1954 18.5398 12.2128 18.5603 12.23 18.5811C12.2629 18.5063 12.2965 18.4318 12.3307 18.3574C12.3194 18.3379 12.3081 18.3184 12.2966 18.2991ZM12.4101 18.1873C12.4013 18.1727 12.3924 18.158 12.3834 18.1435C12.4174 18.0832 12.4519 18.023 12.4869 17.9631C12.4916 17.9751 12.4963 17.9871 12.5009 17.999C12.4702 18.0616 12.4399 18.1243 12.4101 18.1873ZM12.4234 18.5271C12.3949 18.5903 12.3669 18.6538 12.3394 18.7173C12.3497 18.7308 12.36 18.7443 12.3703 18.7578C12.3934 18.6921 12.4169 18.6265 12.4409 18.5611C12.4352 18.5498 12.4294 18.5384 12.4234 18.5271ZM12.5135 18.3673C12.5105 18.3617 12.5074 18.3561 12.5044 18.3505C12.5273 18.3013 12.5505 18.252 12.574 18.2029L12.5755 18.2076C12.5546 18.2607 12.5339 18.3139 12.5135 18.3673ZM12.535 18.7562C12.5168 18.8075 12.4988 18.8588 12.4811 18.9103C12.4848 18.9156 12.4884 18.9209 12.4921 18.9262C12.5069 18.871 12.5219 18.8159 12.5371 18.7608C12.5364 18.7593 12.5358 18.7578 12.535 18.7562ZM12.4402 19.1265C12.4333 19.1158 12.4262 19.1051 12.4191 19.0944C12.3974 19.1604 12.376 19.2265 12.3552 19.2928C12.367 19.3051 12.3788 19.3175 12.3904 19.3299C12.4065 19.2621 12.4232 19.1943 12.4402 19.1265ZM12.5166 19.47C12.5288 19.4168 12.5414 19.3638 12.5542 19.3108C12.5542 19.3108 12.5559 19.3136 12.5567 19.3151C12.5472 19.3716 12.538 19.4281 12.5292 19.4846C12.525 19.4798 12.5208 19.4748 12.5166 19.47ZM12.3481 19.5128C12.3331 19.4961 12.3179 19.4795 12.3027 19.4629C12.2785 19.543 12.255 19.6232 12.2322 19.7035C12.2536 19.7198 12.2749 19.7363 12.296 19.7531C12.3128 19.6729 12.3301 19.5928 12.3481 19.5128ZM12.4313 19.8637C12.4451 19.7955 12.4594 19.7275 12.4742 19.6595C12.4823 19.6694 12.4904 19.6793 12.4985 19.6893C12.4886 19.7585 12.4792 19.8277 12.4702 19.8969C12.4573 19.8858 12.4444 19.8747 12.4313 19.8637ZM12.2615 19.9237C12.237 19.9037 12.2123 19.8839 12.1874 19.8644C12.1616 19.9589 12.1368 20.0536 12.1129 20.1484C12.1453 20.1657 12.1775 20.1833 12.2095 20.2013C12.2259 20.1087 12.2433 20.0162 12.2615 19.9237ZM12.3519 20.2848C12.3663 20.2025 12.3813 20.1204 12.3969 20.0384C12.4138 20.0533 12.4305 20.0683 12.4472 20.0833C12.4377 20.1646 12.4289 20.2459 12.4206 20.3273C12.3979 20.3129 12.3749 20.2988 12.3519 20.2848ZM12.1815 20.3636C12.1462 20.3431 12.1105 20.3231 12.0746 20.3036C12.0479 20.4139 12.0226 20.5246 11.9984 20.6354C12.0431 20.6505 12.0875 20.6661 12.1317 20.6824C12.1472 20.576 12.1638 20.4698 12.1815 20.3636ZM12.2798 20.7397C12.2937 20.6428 12.3084 20.5461 12.3242 20.4495C12.351 20.4663 12.3776 20.4833 12.4041 20.5006C12.3957 20.5944 12.3881 20.6883 12.3814 20.7823C12.3477 20.7677 12.3139 20.7535 12.2798 20.7397ZM12.1097 20.8393C12.0621 20.8214 12.0142 20.8043 11.966 20.7878C11.9394 20.9166 11.9144 21.0456 11.891 21.1748C11.9491 21.1838 12.007 21.1937 12.0647 21.2046C12.0782 21.0828 12.0932 20.9609 12.1097 20.8393ZM12.2169 21.236C12.2294 21.1233 12.243 21.0106 12.2579 20.898C12.2957 20.9137 12.3332 20.9298 12.3705 20.9465C12.364 21.0539 12.3586 21.1613 12.3543 21.2688C12.3087 21.2572 12.2629 21.2463 12.2169 21.236ZM12.0483 21.359C11.9872 21.3473 11.9259 21.3367 11.8643 21.3273C11.4509 23.7558 11.6232 26.271 12.3984 28.657L13.8826 33.2248C14.3308 34.6039 15.297 35.67 16.4959 36.2774C16.7615 36.1908 17.0179 36.0834 17.2629 35.9574C16.4129 35.409 15.7074 34.6154 15.2653 33.6224L13.3118 29.2348C12.2023 26.7428 11.7788 24.0265 12.0483 21.359ZM17.4194 35.8734C16.5615 35.3395 15.8486 34.5522 15.4067 33.5595L13.4532 29.1719C12.357 26.7098 11.9371 24.0266 12.2006 21.391C12.2502 21.4023 12.2996 21.4143 12.3488 21.4271C12.2639 24.2846 12.9693 27.1351 14.4219 29.6511L16.8233 33.8105C17.1803 34.4287 17.6411 34.9495 18.1712 35.3635C17.9366 35.5542 17.6852 35.725 17.4194 35.8734ZM17.4153 36.0521C17.1846 36.1758 16.9439 36.2833 16.6947 36.3729C16.923 36.4768 17.1589 36.5644 17.4004 36.6349C17.6488 36.5762 17.8895 36.5 18.1217 36.4079C17.8782 36.3069 17.642 36.1879 17.4153 36.0521ZM18.3249 36.3223C18.0652 36.2234 17.8133 36.1038 17.5719 35.9647C17.8281 35.8161 18.0709 35.6469 18.2981 35.4596C18.538 35.6358 18.7911 35.7908 19.0541 35.9238C18.8236 36.0748 18.5799 36.2084 18.3249 36.3223ZM18.3296 36.4893C18.1283 36.5763 17.9202 36.6516 17.7061 36.7142C17.9117 36.7609 18.1208 36.7953 18.3321 36.817C18.4254 36.8023 18.5187 36.7851 18.6121 36.7653C18.7301 36.7402 18.8464 36.7113 18.9607 36.6788C18.7465 36.6284 18.5358 36.5651 18.3296 36.4893ZM19.2618 36.5833C19.0142 36.5385 18.7704 36.476 18.5325 36.3965C18.7709 36.2813 18.9991 36.1493 19.2156 36.0022C19.4554 36.1136 19.7026 36.2071 19.9553 36.2822C19.7341 36.398 19.5026 36.4989 19.2618 36.5833ZM19.2744 36.7427C19.1669 36.7794 19.0578 36.813 18.9469 36.8433C19.1665 36.8396 19.3875 36.822 19.6087 36.7899C19.4966 36.7777 19.3851 36.7619 19.2744 36.7427ZM20.2072 36.667C19.9948 36.6676 19.7834 36.6552 19.5741 36.6302C19.7804 36.5456 19.9795 36.449 20.1706 36.3414C20.3835 36.3952 20.5997 36.4361 20.8179 36.4638C20.7075 36.5081 20.5949 36.549 20.4801 36.5863C20.3893 36.6158 20.2984 36.6427 20.2072 36.667ZM20.8213 36.6288C21.0394 36.6023 21.2574 36.5617 21.4741 36.5066C21.3614 36.5061 21.2488 36.5021 21.1365 36.4946C21.0335 36.5424 20.9284 36.5872 20.8213 36.6288ZM21.4228 36.3513C21.6336 36.3543 21.8453 36.3446 22.0565 36.3218C22.1446 36.2881 22.2322 36.2518 22.3194 36.213C22.4296 36.1639 22.5374 36.1115 22.6425 36.0559C22.4225 36.0512 22.2032 36.0331 21.9858 36.0019C21.8069 36.1288 21.6191 36.2457 21.4228 36.3513ZM22.1649 35.8689C22.4142 35.8971 22.6656 35.9076 22.9171 35.8999C23.1351 35.7673 23.3406 35.6204 23.5329 35.4612C23.2701 35.4403 23.0087 35.4002 22.7511 35.3411C22.5699 35.5301 22.3743 35.7066 22.1649 35.8689ZM22.5769 35.2981C22.3828 35.4937 22.1722 35.6749 21.9464 35.8394C21.6719 35.7966 21.4008 35.7321 21.1358 35.6463C21.3554 35.4476 21.5578 35.2318 21.741 35.0013C22.0123 35.1237 22.2919 35.2227 22.5769 35.2981ZM22.873 35.2095C23.1456 35.2672 23.4221 35.303 23.6997 35.3169C23.907 35.1298 24.0974 34.9275 24.27 34.7127C23.9788 34.6674 23.6902 34.5982 23.4075 34.5048C23.2494 34.7532 23.0708 34.989 22.873 35.2095ZM23.2572 34.4526C23.093 34.7065 22.9067 34.9466 22.6999 35.1698C22.4061 35.0972 22.1177 34.9989 21.8383 34.8752C22.0372 34.6093 22.2115 34.3255 22.3587 34.0275C22.6475 34.1987 22.9484 34.3403 23.2572 34.4526ZM23.4911 34.3693C23.782 34.4631 24.0791 34.5307 24.3789 34.5723C24.5613 34.3287 24.7215 34.0704 24.8583 33.8007C24.5394 33.7212 24.2253 33.6118 23.92 33.4717C23.8049 33.7834 23.6612 34.084 23.4911 34.3693ZM23.7797 33.4049C23.6632 33.7228 23.5163 34.0289 23.3412 34.3183C23.0262 34.206 22.7194 34.0624 22.4254 33.8872C22.5867 33.5357 22.7107 33.1658 22.7935 32.7836L22.9953 32.9302C23.2472 33.1132 23.5097 33.2713 23.7797 33.4049ZM23.9718 33.3251C24.2824 33.4687 24.6027 33.5795 24.9278 33.6583C25.0716 33.3521 25.1858 33.0323 25.2684 32.7039C24.9859 32.5993 24.7085 32.4697 24.4389 32.314L24.2224 32.189C24.18 32.5778 24.0954 32.9586 23.9718 33.3251ZM24.0755 32.1043C24.0377 32.499 23.955 32.8858 23.8312 33.2576C23.5749 33.1297 23.3257 32.9789 23.0862 32.805L22.827 32.6166C22.8979 32.2311 22.9271 31.8342 22.9108 31.4318L24.0755 32.1043ZM24.2383 32.0194L24.5163 32.1799C24.7724 32.3279 25.036 32.4517 25.3042 32.5521C25.3885 32.1695 25.4303 31.7762 25.4266 31.3797L24.1976 30.8324C24.2559 31.2309 24.2684 31.6287 24.2383 32.0194ZM24.0293 30.7575C24.0946 31.1518 24.1134 31.5459 24.0891 31.9333L22.9 31.2468C22.882 31.0068 22.8477 30.7652 22.7963 30.5232L22.7224 30.1757L24.0293 30.7575ZM24.1677 30.6498L25.4223 31.2083C25.4059 30.8204 25.346 30.4304 25.2399 30.0452L23.879 29.603L23.9889 29.941C24.0653 30.1763 24.1246 30.4129 24.1677 30.6498ZM23.6971 29.5439L23.8416 29.9888C23.9047 30.1828 23.9558 30.3778 23.9954 30.573L22.6826 29.9885L22.5059 29.1568C22.5124 29.159 22.5189 29.1611 22.5255 29.1633L23.6971 29.5439ZM23.8199 29.4211L25.1868 29.8653C25.127 29.6753 25.0559 29.4867 24.9729 29.3004L24.7826 28.8729L23.5779 28.6168C23.5709 28.6154 23.564 28.6138 23.5571 28.6123L23.8199 29.4211ZM23.3819 28.5738L23.6379 29.362L22.5734 29.0161C22.5384 29.0047 22.5034 28.9933 22.4686 28.9816L22.3226 28.2947C22.6712 28.3998 23.0245 28.493 23.3819 28.5738ZM23.5018 28.442C23.5378 28.4499 23.5739 28.4578 23.61 28.4654L24.7048 28.6981L24.3677 27.941C24.0037 27.898 23.6425 27.8423 23.2848 27.7741L23.5018 28.442ZM23.1109 27.74L23.3261 28.4023C22.9751 28.3207 22.6282 28.2271 22.2859 28.1218L22.1569 27.5154C22.4719 27.6001 22.79 27.6751 23.1109 27.74ZM23.2301 27.6059C23.5817 27.6749 23.9366 27.7318 24.2944 27.7763L24.0111 27.1401C23.685 27.109 23.3607 27.0678 23.0385 27.0164L23.2301 27.6059ZM22.8666 26.988L23.0559 27.5708C22.7413 27.5052 22.4294 27.4299 22.1208 27.3452L22.0084 26.8162C22.2924 26.8814 22.5785 26.9388 22.8666 26.988ZM22.9848 26.8509C23.3007 26.9029 23.6189 26.9452 23.9387 26.9775L23.0194 24.9128C22.61 23.9933 22.4966 22.977 22.6828 22.0018C22.6752 22.0111 22.6675 22.0203 22.6599 22.0297C22.2049 23.085 22.1474 24.2737 22.5047 25.3733L22.9848 26.8509ZM22.9034 21.7262C22.6341 22.7613 22.7215 23.8632 23.1608 24.8498L24.1156 26.9943C24.4724 27.0262 24.8314 27.0457 25.1918 27.0525L23.6245 24.338C23.1477 23.5121 22.926 22.572 22.9749 21.634C22.9512 21.6648 22.9274 21.6955 22.9034 21.7262ZM23.1477 21.4052C23.0467 22.3913 23.2566 23.3913 23.7586 24.2606L25.3718 27.0548C25.4089 27.0551 25.4459 27.0553 25.483 27.0553H26.6015L24.1661 23.7032C23.6421 22.9819 23.3294 22.1381 23.2504 21.2648C23.2164 21.3118 23.1822 21.3586 23.1477 21.4052ZM23.3915 21.0667C23.4382 21.9774 23.7471 22.8631 24.2914 23.6122L26.7929 27.0553H28.2299C28.1144 26.8931 27.9885 26.7358 27.8521 26.5843L24.6384 23.0151C24.0882 22.404 23.7059 21.6704 23.5165 20.8853C23.4754 20.946 23.4336 21.0065 23.3915 21.0667ZM23.6353 20.7079C23.8053 21.5213 24.1877 22.2833 24.7534 22.9115L27.9671 26.4808C28.1325 26.6645 28.283 26.8565 28.4186 27.0553H29.792C29.5069 26.4812 29.1108 25.9502 28.6055 25.4952L25.0364 22.2815C24.4814 21.7818 24.0536 21.1672 23.7773 20.4884C23.7305 20.562 23.6832 20.6351 23.6353 20.7079ZM23.7079 20.3082C23.6705 20.368 23.6327 20.4276 23.5945 20.487C23.5939 20.4828 23.5932 20.4787 23.5925 20.4745C23.6282 20.4102 23.6634 20.3456 23.6981 20.2808C23.7014 20.2899 23.7046 20.299 23.7079 20.3082ZM23.8794 20.3254C24.1448 21.0242 24.5741 21.657 25.1399 22.1665L28.7091 25.3802C29.2494 25.8668 29.6685 26.4378 29.9642 27.0553H30.2859C30.5816 27.0553 30.8716 27.0307 31.154 26.9836C30.8279 25.9543 30.1817 25.0166 29.2413 24.3333L25.3557 21.5103C24.8178 21.1195 24.3706 20.6275 24.0349 20.0683C23.9839 20.1544 23.9321 20.2402 23.8794 20.3254ZM23.9461 19.9139C23.9023 19.989 23.8578 20.0637 23.8127 20.1381C23.8076 20.1227 23.8025 20.1073 23.7976 20.0919C23.8377 20.0144 23.8772 19.9367 23.916 19.8586C23.9259 19.8771 23.9359 19.8956 23.9461 19.9139ZM24.1244 19.915C24.4539 20.4871 24.9023 20.9896 25.4467 21.3851L29.3322 24.2081C30.3062 24.9158 30.9737 25.8886 31.3074 26.9556C31.6433 26.8892 31.9676 26.7907 32.277 26.6633C32.0009 25.2213 31.1233 23.903 29.752 23.1113L25.5927 20.7099C25.0937 20.4218 24.6546 20.0512 24.291 19.6183C24.2366 19.7178 24.181 19.8167 24.1244 19.915ZM24.1856 19.4883C24.1369 19.5781 24.0874 19.6674 24.0369 19.7563C24.0246 19.7329 24.0124 19.7094 24.0005 19.6858C24.044 19.5955 24.0866 19.5048 24.1284 19.4138C24.1472 19.4388 24.1663 19.4637 24.1856 19.4883ZM24.3704 19.4715C24.7299 19.911 25.1688 20.2865 25.67 20.5759L29.8294 22.9773C31.2306 23.7863 32.1312 25.1293 32.4225 26.6008C32.7015 26.476 32.9675 26.3274 33.2181 26.1577C33.0524 24.3293 31.9282 22.6424 30.1319 21.8427L25.7444 19.8892C25.3064 19.6943 24.9037 19.438 24.5464 19.1313C24.4892 19.2454 24.4304 19.3588 24.3704 19.4715ZM24.4266 19.025C24.3742 19.1302 24.3205 19.2348 24.2656 19.3388C24.2439 19.3101 24.2224 19.2812 24.2013 19.2521C24.2473 19.1484 24.2922 19.0443 24.3359 18.9398C24.3658 18.9685 24.396 18.997 24.4266 19.025ZM24.6174 18.9882C24.9708 19.2965 25.371 19.5536 25.8074 19.7478L30.1949 21.7013C32.0153 22.5118 33.1652 24.2073 33.3635 26.0556C33.5887 25.8918 33.8002 25.7104 33.9962 25.5136C33.9936 23.3088 32.5875 21.2594 30.3769 20.5412L25.8092 19.057C25.4542 18.9417 25.1166 18.7872 24.8016 18.5982C24.7421 18.7289 24.6807 18.859 24.6174 18.9882ZM24.6691 18.5157C24.6137 18.6379 24.5566 18.7594 24.4979 18.8802C24.4646 18.8491 24.4318 18.8175 24.3994 18.7854C24.4474 18.6672 24.4939 18.5483 24.539 18.4288C24.5819 18.4584 24.6253 18.4874 24.6691 18.5157ZM24.8655 18.4559C25.175 18.6434 25.5074 18.7963 25.857 18.9098L30.4248 20.394C32.6474 21.1162 34.08 23.1453 34.1484 25.3542C34.3179 25.1691 34.4741 24.9719 34.6158 24.7639C34.8279 22.1778 33.0904 19.7751 30.485 19.2213L25.7872 18.2227C25.5367 18.1695 25.2924 18.0971 25.0563 18.0068C24.995 18.1575 24.9314 18.3073 24.8655 18.4559ZM24.9126 17.9493C24.8549 18.0913 24.7951 18.2325 24.7331 18.3728C24.6864 18.3423 24.6403 18.311 24.5947 18.279C24.644 18.1438 24.6915 18.008 24.7372 17.8716C24.7951 17.8986 24.8536 17.9245 24.9126 17.9493ZM25.1139 17.8631C25.3419 17.9501 25.5776 18.0199 25.8194 18.0713L30.5172 19.0699C33.1058 19.6201 34.8621 21.943 34.7857 24.4978C34.8937 24.3167 34.991 24.1286 35.0769 23.9343C35.0918 23.841 35.1043 23.7468 35.1143 23.6517C35.4165 20.7758 33.3303 18.1995 30.4545 17.8973L25.678 17.3953C25.5539 17.3822 25.4307 17.3644 25.3087 17.3422C25.2469 17.5169 25.1819 17.6907 25.1139 17.8631ZM25.1554 17.3116C25.0964 17.4773 25.0347 17.642 24.9702 17.8055C24.9081 17.7795 24.8466 17.7522 24.7859 17.7235C24.8359 17.5688 24.8834 17.4132 24.9286 17.2568C25.0036 17.2768 25.0792 17.2951 25.1554 17.3116ZM25.3602 17.1942C25.4706 17.2138 25.5819 17.2295 25.6942 17.2413L30.4707 17.7433C33.3278 18.0437 35.4279 20.5241 35.2919 23.3579C35.4413 22.8715 35.5216 22.3548 35.5216 21.8194C35.5216 18.9278 33.1774 16.5837 30.2859 16.5837H25.5554C25.4945 16.7886 25.4294 16.9921 25.3602 17.1942ZM25.3941 16.5828C25.3355 16.778 25.2731 16.9718 25.2069 17.1643C25.1276 17.1475 25.0489 17.1288 24.9708 17.108C25.0204 16.9293 25.0669 16.7498 25.1102 16.5695C25.2044 16.5767 25.2991 16.5812 25.3941 16.5828ZM25.4395 16.4288C25.8364 15.0545 26.043 13.6198 26.043 12.1638V6.40346C26.043 3.81585 24.1659 1.66667 21.6991 1.24335C23.3904 2.00501 24.643 3.6201 24.8509 5.5979L25.453 11.3267C25.6337 13.0451 25.5247 14.764 25.1459 16.4169C25.2434 16.4239 25.3413 16.4278 25.4395 16.4288ZM24.9544 16.5551C24.8769 16.5467 24.7998 16.5364 24.723 16.5244C24.6945 16.6845 24.6634 16.8443 24.6299 17.0034C24.6934 17.0255 24.7574 17.0463 24.8219 17.0658C24.869 16.8963 24.9132 16.7261 24.9544 16.5551ZM24.7797 17.2147C24.7184 17.1963 24.6574 17.1766 24.5969 17.1558C24.5659 17.2963 24.5328 17.4363 24.4978 17.5758C24.5465 17.6029 24.5958 17.6292 24.6454 17.6546C24.6924 17.5087 24.7371 17.362 24.7797 17.2147ZM24.5968 17.8035C24.5501 17.7799 24.5039 17.7557 24.4581 17.7306C24.4258 17.8542 24.3919 17.9773 24.3565 18.1002C24.3921 18.1287 24.4281 18.1567 24.4645 18.1842C24.5103 18.0578 24.5544 17.9309 24.5968 17.8035ZM24.4087 18.3357C24.3753 18.3109 24.3422 18.2858 24.3094 18.2603C24.2769 18.3688 24.2432 18.4769 24.2083 18.5848C24.2324 18.6116 24.2567 18.6381 24.2814 18.6643C24.3251 18.5553 24.3675 18.4457 24.4087 18.3357ZM24.2174 18.8215C24.1956 18.7989 24.174 18.7762 24.1526 18.7533C24.1207 18.848 24.0879 18.9426 24.0541 19.0368C24.0684 19.0591 24.0829 19.0813 24.0977 19.1033C24.1385 19.0098 24.1784 18.9158 24.2174 18.8215ZM24.0239 19.2696C24.0118 19.2523 23.9999 19.235 23.988 19.2176C23.9576 19.2993 23.9265 19.3807 23.8947 19.4619C23.9013 19.4768 23.9079 19.4916 23.9146 19.5064C23.9517 19.4278 23.9881 19.3488 24.0239 19.2696ZM23.8282 19.6865C23.8239 19.6778 23.8197 19.6689 23.8155 19.6601C23.7877 19.7283 23.7594 19.7963 23.7307 19.8641C23.7318 19.8683 23.7329 19.8723 23.7339 19.8764C23.7659 19.8133 23.7973 19.75 23.8282 19.6865ZM23.8089 19.2543C23.834 19.1882 23.8586 19.1219 23.8828 19.0556C23.8775 19.0472 23.8724 19.0388 23.8672 19.0303C23.8467 19.101 23.8257 19.1715 23.8042 19.2419C23.8058 19.246 23.8074 19.2502 23.8089 19.2543ZM23.9252 18.8249C23.9334 18.8391 23.9416 18.8533 23.9499 18.8674C23.9785 18.7854 24.0064 18.7032 24.0336 18.6208C24.0198 18.6048 24.006 18.5887 23.9924 18.5725C23.9707 18.6568 23.9484 18.7409 23.9252 18.8249ZM23.8708 18.4224C23.8537 18.4908 23.8362 18.5591 23.8182 18.6273C23.8163 18.6235 23.8143 18.6196 23.8124 18.6158C23.8264 18.5437 23.8399 18.4714 23.8528 18.3992C23.8588 18.4069 23.8648 18.4147 23.8708 18.4224ZM24.0392 18.3859C24.0559 18.4066 24.0727 18.4273 24.0897 18.4477C24.1205 18.3504 24.1504 18.2528 24.1793 18.155C24.1552 18.1348 24.1312 18.1144 24.1074 18.0938C24.0856 18.1913 24.0629 18.2887 24.0392 18.3859ZM23.9753 17.9744C23.9569 18.0592 23.9377 18.1438 23.9178 18.2283C23.9082 18.2152 23.8986 18.202 23.8891 18.1888C23.9033 18.1029 23.9167 18.017 23.9294 17.931C23.9447 17.9456 23.9599 17.9601 23.9753 17.9744ZM24.1452 17.9204C24.172 17.9446 24.1991 17.9685 24.2264 17.9921C24.2585 17.8789 24.2894 17.7654 24.3188 17.6516C24.2829 17.6304 24.2473 17.6088 24.2119 17.5868C24.1909 17.6982 24.1687 17.8094 24.1452 17.9204ZM24.0715 17.4958C24.053 17.5962 24.0334 17.6963 24.0129 17.7964C23.9939 17.7779 23.9751 17.7593 23.9564 17.7405C23.9699 17.6413 23.9824 17.5418 23.9939 17.4424C24.0196 17.4604 24.0455 17.4783 24.0715 17.4958ZM24.242 17.4227C24.2805 17.4473 24.3193 17.4715 24.3584 17.495C24.3907 17.3647 24.4213 17.2338 24.4502 17.1027C24.4013 17.0841 24.3527 17.0648 24.3044 17.0446C24.2852 17.1708 24.2644 17.2968 24.242 17.4227ZM24.1576 16.9805C24.1402 17.0968 24.1215 17.2128 24.1014 17.3288C24.0718 17.3082 24.0424 17.2873 24.0133 17.2661C24.025 17.1533 24.0355 17.0403 24.0449 16.9273C24.0822 16.9456 24.1198 16.9633 24.1576 16.9805ZM24.3277 16.8865C24.3791 16.9084 24.4309 16.9294 24.483 16.9496C24.5144 16.7995 24.5436 16.6489 24.5705 16.498C24.5075 16.486 24.4448 16.4728 24.3824 16.4584C24.3661 16.6013 24.3479 16.744 24.3277 16.8865ZM24.2309 16.4209C24.2159 16.5544 24.1992 16.6877 24.1807 16.8208C24.1394 16.8014 24.0984 16.7815 24.0576 16.761C24.0667 16.6336 24.0742 16.5061 24.0801 16.3785C24.1301 16.3934 24.1804 16.4076 24.2309 16.4209ZM24.2475 16.2653C24.4624 14.1582 24.2418 12.0091 23.5746 9.95585L21.7946 4.47749C21.3465 3.09841 20.3804 2.03242 19.1816 1.42499C18.9159 1.51167 18.6597 1.61902 18.4146 1.74514C19.2644 2.29349 19.9697 3.08691 20.4118 4.07976L22.7547 9.3421C23.7259 11.5235 24.1715 13.8768 24.0868 16.2188C24.14 16.2352 24.1937 16.2507 24.2475 16.2653ZM23.9336 16.1688C24.0104 13.8648 23.5688 11.5509 22.6134 9.40501L20.2704 4.14271C19.8285 3.15024 19.1158 2.36295 18.258 1.82912C17.9924 1.97752 17.7409 2.14839 17.5063 2.33917C18.036 2.75308 18.4968 3.2737 18.8535 3.89169L21.7337 8.88027C23.0198 11.1078 23.7202 13.5976 23.8049 16.1223C23.8476 16.1383 23.8905 16.1538 23.9336 16.1688ZM23.9274 16.3301C23.8879 16.3169 23.8487 16.3032 23.8097 16.289C23.8123 16.4023 23.8136 16.5158 23.8137 16.6292C23.8449 16.6473 23.8763 16.6649 23.9079 16.6823C23.9158 16.565 23.9223 16.4476 23.9274 16.3301ZM23.8957 16.8515C23.8679 16.8368 23.8403 16.8218 23.8129 16.8066C23.8118 16.9067 23.8098 17.0068 23.8068 17.1068C23.8274 17.1236 23.848 17.1403 23.8689 17.1566C23.8788 17.055 23.8878 16.9533 23.8957 16.8515ZM23.85 17.3376C23.8332 17.3249 23.8164 17.3121 23.7999 17.2992C23.7961 17.3862 23.7917 17.4732 23.7866 17.5602C23.7974 17.5723 23.8084 17.5844 23.8193 17.5964C23.8303 17.5103 23.8405 17.4239 23.85 17.3376ZM23.7928 17.7944C23.786 17.7874 23.7793 17.7803 23.7725 17.7732C23.7672 17.8463 23.7613 17.9195 23.7549 17.9926C23.7573 17.9963 23.7596 17.9998 23.762 18.0035C23.7728 17.9338 23.783 17.8642 23.7928 17.7944ZM23.6409 17.3893C23.6443 17.3187 23.6472 17.2482 23.6496 17.1776C23.6421 17.1713 23.6345 17.1648 23.627 17.1585C23.6294 17.2319 23.6312 17.3054 23.6325 17.3789C23.6353 17.3824 23.638 17.3858 23.6409 17.3893ZM23.6188 16.9452C23.6309 16.9561 23.6431 16.967 23.6553 16.9779C23.6572 16.8911 23.6584 16.8042 23.6588 16.7173C23.6407 16.7064 23.6226 16.6954 23.6047 16.6843C23.6101 16.7712 23.6148 16.8581 23.6188 16.9452ZM23.4426 16.5791C23.4475 16.6494 23.4519 16.7198 23.4559 16.7903C23.4528 16.7872 23.4497 16.784 23.4466 16.7809C23.4376 16.708 23.4281 16.6352 23.4181 16.5623C23.4263 16.568 23.4344 16.5735 23.4426 16.5791ZM23.5914 16.4923C23.6137 16.5068 23.6361 16.5213 23.6585 16.5354C23.6579 16.4333 23.6561 16.3312 23.6534 16.2292C23.6242 16.2174 23.5951 16.2053 23.5661 16.193C23.5755 16.2927 23.5839 16.3924 23.5914 16.4923ZM23.5484 16.0165C23.5814 16.0313 23.6145 16.0456 23.6479 16.0596C23.5538 13.5833 22.8614 11.1431 21.5997 8.95768L18.7195 3.96906C18.3672 3.35872 17.9104 2.84617 17.3849 2.44092C17.1289 2.66226 16.8945 2.908 16.6854 3.17452C16.9007 3.38477 17.1012 3.61594 17.284 3.86757L20.6699 8.52776C22.2829 10.7478 23.264 13.3343 23.5484 16.0165ZM16.5727 3.06755C16.7786 2.80651 17.0081 2.56497 17.2581 2.34615C17.0104 2.16693 16.7488 2.01076 16.4765 1.87857C16.2277 2.05395 15.9954 2.25021 15.7821 2.46451C16.0608 2.63867 16.3257 2.8399 16.5727 3.06755ZM16.4782 3.19096C16.2271 2.95832 15.9569 2.75388 15.672 2.57839C15.4405 2.82527 15.2332 3.09416 15.0531 3.38107C15.289 3.56761 15.5125 3.77648 15.7206 4.00755L15.8888 4.1943C16.0493 3.83756 16.2474 3.50142 16.4782 3.19096ZM16.6234 1.77867C16.8864 1.91175 17.1394 2.06681 17.3794 2.24304C17.6066 2.05563 17.8494 1.88647 18.1056 1.73781C17.8643 1.59871 17.6124 1.47913 17.3527 1.38011C17.0976 1.49408 16.8539 1.62763 16.6234 1.77867ZM17.5559 1.29447C17.7994 1.39558 18.0355 1.51449 18.2623 1.65037C18.4929 1.52659 18.7337 1.41912 18.9829 1.32949C18.7546 1.22557 18.5187 1.13788 18.2771 1.0674C18.0288 1.1262 17.788 1.20237 17.5559 1.29447ZM22.1874 14.7919C20.8496 12.1398 18.7604 9.91035 16.1489 8.4026L15.5715 8.06926V8.70051C18.343 10.0403 20.6393 12.1666 22.1874 14.7919ZM21.7407 14.3621C20.2324 12.0174 18.1045 10.1123 15.5715 8.8726V9.41443C18.0249 10.5053 20.1493 12.2126 21.7407 14.3621ZM15.4168 9.3466V8.79793C15.3006 8.74268 15.1837 8.68885 15.0659 8.63643L14.4569 8.36535L14.5229 8.99318C14.8253 9.10201 15.1233 9.21993 15.4168 9.3466ZM14.5409 9.16435C14.8372 9.2726 15.1292 9.38968 15.4168 9.51535V9.99435C15.1469 9.88976 14.8738 9.7926 14.5976 9.70301L14.5409 9.16435ZM14.3614 8.93602L14.2937 8.2926L13.1702 7.79243L13.3422 8.60143L14.0608 8.83493C14.1614 8.86768 14.2616 8.90135 14.3614 8.93602ZM13.3794 8.77627L14.013 8.9821C14.1358 9.02201 14.2579 9.06335 14.3793 9.10627L14.4366 9.65176C14.1314 9.55643 13.8227 9.47027 13.5106 9.39368L13.3794 8.77627ZM13.1723 8.54627L12.9954 7.7146L11.682 7.12985C11.7215 7.32485 11.7726 7.5196 11.8356 7.71335L11.9804 8.15893L13.1723 8.54627ZM12.0394 8.34093L13.2094 8.72101L13.3439 9.35368C13.2411 9.32968 13.138 9.3066 13.0346 9.28468L12.295 9.12743L12.0394 8.34093ZM11.7984 8.09985L11.6884 7.76118C11.612 7.52618 11.5527 7.28968 11.5097 7.0531L10.2549 6.4944C10.2712 6.88235 10.3312 7.27235 10.4374 7.6576L11.7984 8.09985ZM10.4904 7.8376L11.8575 8.28176L12.1203 9.09026L10.8947 8.82976L10.7042 8.40185C10.6213 8.21576 10.5502 8.02735 10.4904 7.8376ZM10.2621 7.60068C10.1624 7.21051 10.1084 6.81618 10.0975 6.42435L9.80361 6.2935C9.53344 6.17321 9.25852 6.07767 8.98144 6.00587C8.93769 6.39526 8.93727 6.79076 8.98236 7.18485L10.2621 7.60068ZM9.00469 7.35485L10.311 7.77926C10.3785 8.0101 10.4623 8.23902 10.5628 8.46485L10.7076 8.79001L9.30777 8.49243C9.16186 8.12043 9.06144 7.73885 9.00469 7.35485ZM8.82102 7.13243C8.78169 6.74327 8.78527 6.35318 8.82986 5.969C8.49603 5.89307 8.15969 5.85118 7.82519 5.84165C7.74819 6.17113 7.70302 6.50761 7.69044 6.84601C7.98827 6.8896 8.28652 6.95877 8.58244 7.05493L8.82102 7.13243ZM7.68703 7.00201C7.97003 7.04443 8.25336 7.11068 8.53461 7.2021L8.84086 7.3016C8.89269 7.6901 8.98761 8.0766 9.12752 8.45418L7.81111 8.17435C7.72511 7.78718 7.68419 7.39376 7.68703 7.00201ZM7.53636 6.82577C7.54952 6.49364 7.59327 6.1634 7.66686 5.83955C7.36111 5.84014 7.05744 5.86766 6.75944 5.92081C6.66127 6.20882 6.58877 6.50399 6.54202 6.80268C6.86994 6.77976 7.20261 6.78677 7.53636 6.82577ZM6.51994 6.95951C6.85361 6.93401 7.19252 6.94052 7.53244 6.98118C7.52819 7.36785 7.56544 7.75618 7.64519 8.1391L7.40019 8.08701C7.09569 8.02226 6.79177 7.98468 6.49094 7.97251C6.46802 7.6346 6.47777 7.29526 6.51994 6.95951ZM6.38344 6.81618C6.42686 6.52491 6.49411 6.2368 6.58502 5.95497C6.31261 6.01313 6.04536 6.09283 5.78613 6.19305C5.67285 6.44837 5.58116 6.7106 5.51092 6.97693C5.79544 6.89985 6.08719 6.84576 6.38344 6.81618ZM5.46855 7.14951C5.75934 7.0656 6.05836 7.00651 6.36227 6.97393C6.32294 7.30376 6.31394 7.63677 6.33552 7.96843C5.99969 7.9646 5.66814 7.99235 5.34452 8.04943C5.35974 7.74743 5.40102 7.44626 5.46855 7.14951ZM5.33892 8.20776C5.33207 8.54601 5.35783 8.88451 5.41594 9.21818C5.71647 9.19885 6.02269 9.20451 6.33227 9.23701L6.58103 9.26318C6.46169 8.89077 6.38411 8.50843 6.34786 8.12343C6.00561 8.1186 5.668 8.14751 5.33892 8.20776ZM6.50378 8.12793C6.54194 8.51793 6.62377 8.90485 6.74977 9.28093L8.08811 9.4216C7.90952 9.06068 7.77469 8.68618 7.68261 8.30526L7.36802 8.23835C7.07869 8.17685 6.78986 8.1406 6.50378 8.12793ZM7.85102 8.34101C7.94769 8.71701 8.08736 9.0861 8.27136 9.44085L9.69486 9.59043L9.51686 9.28218C9.39327 9.06818 9.28611 8.84918 9.19486 8.62668L7.85102 8.34101ZM9.37936 8.66593C9.45861 8.84843 9.54902 9.02835 9.65094 9.20485L9.88511 9.61043L11.1312 9.74143L10.7854 8.96477L9.37936 8.66593ZM10.9725 9.00451L11.3089 9.7601L12.061 9.8391C12.166 9.85018 12.2708 9.86226 12.3754 9.87543L12.1754 9.26027L10.9725 9.00451ZM12.3503 9.29735L12.5453 9.89776C12.8638 9.94135 13.1799 9.99477 13.4935 10.0577L13.3794 9.5211C13.2543 9.49118 13.1286 9.46285 13.0024 9.43601L12.3503 9.29735ZM13.5464 9.56201L13.6589 10.0918C13.9431 10.152 14.2249 10.2202 14.5043 10.2959L14.4542 9.81952C14.155 9.72468 13.8524 9.63868 13.5464 9.56201ZM14.6153 9.8716L14.6645 10.3403C14.9175 10.4119 15.1684 10.4898 15.4168 10.5739V10.1604C15.1528 10.0569 14.8855 9.9606 14.6153 9.8716ZM15.5715 10.2221V10.6273C17.4629 11.2899 19.2119 12.3141 20.7184 13.6453C19.2536 12.1688 17.5024 11.0033 15.5715 10.2221ZM20.1578 13.3721C18.788 12.254 17.236 11.3811 15.5715 10.7913V11.135C17.209 11.6214 18.7596 12.3762 20.1578 13.3721ZM15.4168 11.0899V10.7374C15.1741 10.6543 14.9291 10.5773 14.682 10.5063L14.7244 10.9092C14.9567 10.9641 15.1875 11.0244 15.4168 11.0899ZM14.7415 11.0723C14.9681 11.1268 15.1932 11.1863 15.4168 11.2509V12.1638C15.4168 13.2118 15.0699 14.224 14.44 15.0471C14.8219 14.2411 14.9797 13.339 14.8849 12.4374L14.7415 11.0723ZM14.5649 10.8723L14.5216 10.4611C14.2483 10.3858 13.9724 10.3179 13.6942 10.2576L13.7922 10.7186C14.0514 10.7633 14.3089 10.8146 14.5649 10.8723ZM13.8269 10.8818C14.0801 10.9265 14.3319 10.9776 14.5819 11.0349L14.731 12.4536C14.8406 13.496 14.6014 14.5392 14.0607 15.4237C14.3564 14.5821 14.4192 13.6683 14.2306 12.7813L13.8269 10.8818ZM13.6282 10.6912L13.5286 10.2227C13.221 10.1596 12.9109 10.1058 12.5985 10.0614L12.7659 10.5765C13.0549 10.6068 13.3424 10.645 13.6282 10.6912ZM12.8183 10.7378C13.1013 10.7686 13.3829 10.8073 13.6627 10.8537L14.0793 12.8135C14.2962 13.8342 14.1695 14.8917 13.729 15.8248C13.7276 15.8263 13.7262 15.8278 13.7247 15.8293C13.9287 14.9638 13.8949 14.0514 13.6156 13.1918L12.8183 10.7378ZM12.5978 10.5598L12.4283 10.0382C12.3008 10.0216 12.173 10.0065 12.0449 9.99301L11.3816 9.92335L11.6384 10.5C11.9595 10.5101 12.2794 10.5301 12.5978 10.5598ZM11.7083 10.6572C12.0235 10.6686 12.3375 10.6898 12.6499 10.7203L13.4684 13.2396C13.7692 14.1651 13.7759 15.1538 13.4993 16.0729C13.482 16.0919 13.4649 16.111 13.4477 16.1302C13.5288 15.2946 13.3945 14.4445 13.0471 13.6642L11.7083 10.6572ZM11.4669 10.4956L11.2039 9.90468L9.98069 9.7761L10.3943 10.4923H11.1509C11.2564 10.4923 11.3617 10.4934 11.4669 10.4956ZM10.4836 10.6471H11.1509C11.2796 10.6471 11.4082 10.6487 11.5366 10.6519L12.9058 13.7271C13.2727 14.5514 13.3941 15.456 13.2671 16.335C13.2389 16.3677 13.2108 16.4003 13.1829 16.4332C13.1494 15.6521 12.9292 14.8829 12.5311 14.1934L10.4836 10.6471ZM10.2155 10.4923L9.79052 9.7561L8.36069 9.60585C8.45861 9.7791 8.56736 9.94868 8.68719 10.1135L8.96236 10.4923H10.2155ZM9.07486 10.6471H10.3049L12.397 14.2708C12.8119 14.9893 13.0273 15.7972 13.0325 16.6125C12.996 16.6568 12.9598 16.7012 12.9238 16.7457C12.7908 16.0402 12.5031 15.3657 12.073 14.7738L9.07486 10.6471ZM8.77111 10.4923L8.56202 10.2045C8.41669 10.0045 8.28711 9.79785 8.17311 9.5861L6.80686 9.44251C6.94228 9.80635 7.11986 10.1588 7.33986 10.4923H8.77111ZM7.44594 10.6471H8.88352L11.9479 14.8647C12.3913 15.4751 12.6785 16.1762 12.7949 16.9077C12.7518 16.9626 12.7089 17.0178 12.6666 17.0733C12.4544 16.4604 12.1205 15.89 11.6781 15.3987L7.82377 11.1179C7.68736 10.9664 7.56144 10.8092 7.44594 10.6471ZM7.15561 10.4923C6.94027 10.1521 6.76702 9.79377 6.63561 9.42451L6.31611 9.39093C6.02186 9.36001 5.73082 9.3541 5.44499 9.37143C5.52365 9.75527 5.64549 10.1315 5.8101 10.4923H7.15561ZM5.88381 10.6471H7.25727C7.39286 10.8458 7.54336 11.0378 7.70877 11.2215L11.5631 15.5023C12.0154 16.0044 12.3504 16.5921 12.5535 17.2232C12.5046 17.2888 12.4563 17.3548 12.4085 17.4212C12.1416 16.9138 11.7852 16.4525 11.351 16.0615L7.07027 12.2071C6.56494 11.7522 6.16894 11.2212 5.88381 10.6471ZM12.4871 17.5773C12.4945 17.5927 12.5019 17.6082 12.5091 17.6237C12.5454 17.5642 12.5821 17.5049 12.6192 17.4458C12.6159 17.4333 12.6124 17.4209 12.609 17.4085C12.5679 17.4645 12.5274 17.5208 12.4871 17.5773ZM12.7249 17.2526C12.7268 17.2588 12.7286 17.2651 12.7305 17.2713C12.7616 17.2233 12.793 17.1753 12.8246 17.1276C12.8244 17.1258 12.8243 17.1241 12.824 17.1223C12.7908 17.1655 12.7577 17.209 12.7249 17.2526ZM12.6706 17.6563C12.6421 17.7027 12.6139 17.7493 12.5858 17.7959C12.5884 17.8019 12.5909 17.8078 12.5934 17.8138C12.6192 17.7629 12.6454 17.7121 12.6718 17.6614C12.6714 17.6597 12.671 17.658 12.6706 17.6563ZM12.631 19.8605C12.6239 19.9147 12.6169 19.9689 12.6103 20.0231C12.6149 20.0274 12.6196 20.0318 12.6242 20.0362C12.6271 19.9789 12.6304 19.9217 12.6339 19.8644C12.6329 19.8631 12.632 19.8618 12.631 19.8605ZM12.6151 20.2429C12.6061 20.2339 12.597 20.2249 12.5879 20.216C12.5804 20.285 12.5733 20.3541 12.5667 20.4231C12.5807 20.4327 12.5947 20.4423 12.6087 20.4521C12.6104 20.3823 12.6124 20.3127 12.6151 20.2429ZM12.7612 20.5628C12.7621 20.5083 12.7634 20.4539 12.7649 20.3994L12.7681 20.4029C12.7705 20.4601 12.7733 20.5173 12.7764 20.5743C12.7714 20.5705 12.7663 20.5667 12.7612 20.5628ZM12.6053 20.6398C12.5872 20.6266 12.569 20.6135 12.5507 20.6005C12.5437 20.6838 12.5374 20.767 12.5318 20.8503C12.556 20.8618 12.5803 20.8734 12.6044 20.8853C12.604 20.8035 12.6044 20.7217 12.6053 20.6398ZM12.7596 20.9653C12.7589 20.8959 12.7588 20.8265 12.7591 20.757C12.7691 20.7649 12.779 20.7729 12.7889 20.7809C12.7936 20.8506 12.7988 20.9202 12.8044 20.9898C12.7895 20.9815 12.7746 20.9734 12.7596 20.9653ZM12.606 21.0594C12.5779 21.045 12.5498 21.0308 12.5214 21.017C12.5159 21.1148 12.5112 21.2125 12.5075 21.3103C12.5428 21.3204 12.5779 21.3309 12.6129 21.3419C12.6097 21.2478 12.6074 21.1536 12.606 21.0594ZM12.7695 21.3938C12.7664 21.3104 12.764 21.2269 12.7623 21.1434C12.7819 21.1544 12.8013 21.1655 12.8207 21.1768C12.8283 21.2583 12.8365 21.3398 12.8454 21.421C12.8202 21.4118 12.7949 21.4027 12.7695 21.3938ZM12.6192 21.5063C12.5804 21.4938 12.5415 21.4816 12.5024 21.47C12.4257 24.2862 13.1243 27.094 14.5559 29.5738L16.9574 33.7331C17.3099 34.3437 17.7668 34.8564 18.2925 35.2618C18.5485 35.0405 18.7828 34.7949 18.9918 34.5286C18.7762 34.3182 18.5754 34.0867 18.3923 33.8347L15.5693 29.9491C13.7658 27.4669 12.7522 24.5265 12.6192 21.5063ZM19.0863 34.4045C18.8819 34.2036 18.6914 33.9832 18.5175 33.7438L15.6944 29.8582C13.9211 27.4174 12.9192 24.5293 12.7766 21.5607C12.8063 21.5715 12.8358 21.5826 12.8652 21.594C13.2451 24.7478 14.5873 27.7329 16.7415 30.1255L19.675 33.3834C19.5169 33.7471 19.3189 34.0894 19.0863 34.4045ZM19.1046 34.6356C18.8987 34.8964 18.6693 35.1378 18.4194 35.3565C18.6671 35.5357 18.9289 35.6918 19.2011 35.8239C19.4498 35.6487 19.6819 35.4526 19.8953 35.2384C19.6166 35.0644 19.3516 34.8632 19.1046 34.6356ZM20.0054 35.1245C19.7205 34.9491 19.4503 34.7448 19.1991 34.5122C19.4299 34.2019 19.6279 33.866 19.7885 33.5095L19.9552 33.6947C20.1637 33.9262 20.3877 34.1355 20.6243 34.3223C20.4442 34.6091 20.2369 34.8778 20.0054 35.1245ZM20.0315 35.3208C19.8252 35.5308 19.6014 35.7243 19.3623 35.8988C19.6169 36.0119 19.8799 36.1044 20.1484 36.1758C20.3902 36.0359 20.6185 35.8776 20.8319 35.7034C20.5564 35.5986 20.2886 35.4708 20.0315 35.3208ZM20.9677 35.5887C20.6831 35.4857 20.4065 35.3578 20.1414 35.2055C20.3671 34.9619 20.5701 34.6978 20.7476 34.4169C21.017 34.6173 21.3015 34.7897 21.5969 34.9337C21.4071 35.169 21.1967 35.3883 20.9677 35.5887ZM21.6944 34.8089C21.8989 34.5393 22.077 34.2504 22.2261 33.9464C21.9714 33.7853 21.7267 33.6006 21.4952 33.3921L21.3101 33.2254C21.1877 33.5968 21.0258 33.9516 20.8287 34.2843C21.1027 34.4893 21.3929 34.6643 21.6944 34.8089ZM20.7052 34.189C20.9036 33.8512 21.0649 33.4901 21.184 33.1119L20.1842 32.2117C20.1165 32.6087 20.0054 32.9908 19.8559 33.3531L20.0702 33.5911C20.2684 33.8112 20.4809 34.0105 20.7052 34.189ZM19.7407 33.2252C19.8836 32.8642 19.9875 32.4835 20.0473 32.0884L17.926 30.1783C15.4281 27.9293 13.7431 24.9454 13.0912 21.6883C13.0707 21.6792 13.0501 21.6701 13.0294 21.6612C13.4194 24.752 14.7433 27.6749 16.8565 30.0219L19.7407 33.2252ZM13.0082 21.4844C13.0239 21.4908 13.0398 21.4974 13.0554 21.5041C13.0426 21.4355 13.0302 21.3668 13.0183 21.2981C13.0075 21.2911 12.9967 21.2842 12.9859 21.2773C12.9929 21.3464 13.0003 21.4154 13.0082 21.4844ZM12.9676 21.0839C12.9732 21.0873 12.9787 21.0906 12.9842 21.0939C12.9752 21.0375 12.9664 20.9809 12.958 20.9243C12.958 20.9243 12.9554 20.922 12.9542 20.9208C12.9584 20.9753 12.9629 21.0296 12.9676 21.0839ZM13.1973 21.4199C13.2071 21.4736 13.2173 21.5272 13.2277 21.5807C13.2336 21.5834 13.2395 21.5863 13.2454 21.589C13.2305 21.5338 13.2159 21.4785 13.2017 21.4231C13.2002 21.4221 13.1987 21.421 13.1973 21.4199ZM13.3006 21.7884C13.2891 21.7826 13.2776 21.7768 13.266 21.771C13.9275 24.9516 15.5855 27.8628 18.0295 30.0634L20.072 31.9024C20.0948 31.7043 20.1064 31.5029 20.1064 31.2988V30.8313L19.1097 30.1072C16.2822 28.0528 14.2457 25.1165 13.3006 21.7884ZM20.1064 30.64L19.2007 29.9819C16.4424 27.9779 14.4444 25.1262 13.4914 21.8909C13.4929 21.8918 13.4945 21.8928 13.4961 21.8937C14.7282 25.1969 17.0545 27.9962 20.1064 29.8112V30.64ZM20.2612 30.9438V31.2988C20.2612 31.5463 20.2445 31.7899 20.2122 32.0287L21.2329 32.9476C21.3372 32.5737 21.4008 32.1842 21.4189 31.7849L20.2612 30.9438ZM21.4241 31.5973L20.2612 30.7524V29.902C20.2673 29.9055 20.2734 29.9091 20.2795 29.9126L21.3464 30.5285L21.3952 30.9936C21.4165 31.1965 21.426 31.398 21.4241 31.5973ZM21.568 31.8932C21.5422 32.2951 21.4716 32.6869 21.3608 33.0629L21.5987 33.2771C21.8188 33.4752 22.051 33.6513 22.2927 33.8053C22.4548 33.4486 22.5774 33.0726 22.6564 32.6839L21.568 31.8932ZM22.6877 32.5154L21.5767 31.7083C21.5839 31.4675 21.575 31.2235 21.5491 30.9773L21.512 30.6242L22.7512 31.3396C22.7749 31.7386 22.7524 32.1326 22.6877 32.5154ZM22.7367 31.1525C22.7178 30.9542 22.6873 30.7548 22.6449 30.5553L22.5476 30.0978L21.4223 29.5968C21.4159 29.5939 21.4095 29.5911 21.4031 29.5883L21.492 30.4339L22.7367 31.1525ZM21.3264 30.3383L21.2397 29.5141C20.9068 29.3607 20.5804 29.1961 20.2612 29.0207V29.7229C20.293 29.7415 20.3249 29.7601 20.3569 29.7786L21.3264 30.3383ZM20.1064 29.6308V28.9345C17.3898 27.4014 15.1966 25.0839 13.8156 22.2861C15.062 25.3338 17.2618 27.9159 20.1064 29.6308ZM14.198 22.6903C15.5591 25.223 17.6059 27.3266 20.1064 28.7565V28.144C17.6987 26.8799 15.6578 25.001 14.198 22.6903ZM20.2612 28.2241V28.8438C20.5743 29.0181 20.8944 29.1819 21.2209 29.3348L21.1481 28.6424C20.8475 28.512 20.5518 28.3725 20.2612 28.2241ZM21.1295 28.4653C20.8352 28.3358 20.5457 28.1973 20.2612 28.0501V27.5093C20.5256 27.6323 20.7938 27.7478 21.0654 27.8559L21.1295 28.4653ZM21.311 28.7118L21.3844 29.4101C21.4179 29.4254 21.4515 29.4404 21.4852 29.4554L22.5079 29.9108L22.3356 29.1002C21.9885 28.9824 21.6469 28.8528 21.311 28.7118ZM22.2981 28.9238C21.9574 28.8059 21.6221 28.6765 21.2925 28.5359L21.2277 27.9194C21.5321 28.0367 21.8408 28.1444 22.1533 28.2426L22.2981 28.9238ZM22.1163 28.0685L21.9889 27.4692C21.7075 27.3901 21.4288 27.3032 21.153 27.2086L21.2095 27.7464C21.5078 27.863 21.8101 27.9704 22.1163 28.0685ZM21.0472 27.6818L20.9914 27.1522C20.7455 27.0648 20.502 26.9713 20.2612 26.8717V27.3384C20.5196 27.4601 20.7817 27.5746 21.0472 27.6818ZM20.1064 27.2646V26.8068C18.2264 26.006 16.5129 24.8377 15.0724 23.3596C16.4631 25.0032 18.18 26.3316 20.1064 27.2646ZM15.5581 23.6233C16.8872 24.8963 18.4292 25.9154 20.1064 26.6384V26.496C20.1064 26.4143 20.1085 26.3328 20.1125 26.2515C18.465 25.644 16.9231 24.7581 15.5581 23.6233ZM20.2649 26.3068C20.2624 26.3697 20.2612 26.4328 20.2612 26.496V26.7041C20.4961 26.8023 20.7336 26.8948 20.9735 26.9813L20.9257 26.526C20.7038 26.4578 20.4834 26.3848 20.2649 26.3068ZM20.9081 26.3586C20.6952 26.2922 20.4838 26.2212 20.2741 26.1457C20.3522 25.0907 20.7811 24.0903 21.4941 23.3058C21.0004 24.1846 20.7864 25.2012 20.8932 26.2171L20.9081 26.3586ZM21.0864 26.5744L21.1352 27.0387C21.4048 27.1326 21.6774 27.2191 21.9525 27.298L21.8418 26.777C21.5881 26.7158 21.3362 26.6482 21.0864 26.5744ZM21.8061 26.609C21.5585 26.548 21.3127 26.4808 21.0689 26.4078L21.0471 26.2008C20.9235 25.0252 21.2435 23.8486 21.9394 22.8997C21.5404 23.8253 21.4339 24.8584 21.6464 25.8574L21.8061 26.609ZM21.9728 26.6491C22.2507 26.7143 22.5307 26.7718 22.8125 26.8215L22.3575 25.4211C22.042 24.4501 22.0398 23.4118 22.3396 22.4498C21.7471 23.4661 21.552 24.6693 21.7977 25.8253L21.9728 26.6491ZM21.8474 14.9798C20.0659 13.2532 17.9089 11.9985 15.5715 11.2965V12.1638C15.5715 13.463 15.0554 14.7089 14.1367 15.6276C14.1147 15.6497 14.0927 15.6718 14.0708 15.6939C13.9924 15.8098 13.9089 15.9227 13.8201 16.0323C13.8004 16.0567 13.7807 16.0811 13.7611 16.1056C13.6954 16.2288 13.6241 16.3497 13.5474 16.4678C13.5301 16.4945 13.5129 16.5212 13.4957 16.548C13.4433 16.6771 13.3852 16.8043 13.3214 16.9294C13.3072 16.9574 13.293 16.9853 13.2789 17.0134C13.2403 17.1477 13.1957 17.2807 13.1453 17.4121C13.134 17.4415 13.1228 17.4708 13.1117 17.5003C13.0873 17.6378 13.0569 17.7747 13.0204 17.9106C13.0122 17.9413 13.0041 17.9719 12.9961 18.0026C12.9862 18.1416 12.9703 18.2807 12.9483 18.4194C12.9433 18.4507 12.9384 18.482 12.9337 18.5133C12.9383 18.6527 12.937 18.7926 12.9297 18.9328C12.928 18.9641 12.9265 18.9953 12.925 19.0266C12.9443 19.1651 12.9577 19.3048 12.9651 19.4455C12.9667 19.4764 12.9684 19.5073 12.9702 19.5381C13.0039 19.6742 13.032 19.8121 13.0541 19.9517C13.0589 19.9822 13.0639 20.0127 13.0689 20.0432C13.1167 20.1749 13.1589 20.3093 13.1955 20.4457C13.2037 20.476 13.2119 20.5063 13.2202 20.5366C13.2813 20.6622 13.3371 20.7908 13.3875 20.9223C13.3989 20.9519 13.4104 20.9815 13.4219 21.0111C13.4955 21.1293 13.5644 21.2511 13.628 21.3761C13.6422 21.4038 13.6564 21.4315 13.6707 21.4591C13.7567 21.5695 13.8383 21.684 13.9151 21.8023C13.9321 21.8284 13.9492 21.8545 13.9663 21.8805C14.0634 21.9813 14.1564 22.0866 14.2452 22.1962C14.2647 22.2203 14.2843 22.2443 14.3039 22.2683C14.4112 22.3585 14.5149 22.4536 14.6147 22.5534C16.1907 24.1294 18.0738 25.3278 20.1233 26.0904C20.2188 24.9398 20.7186 23.8548 21.5412 23.0321C21.7357 22.8377 21.9244 22.6385 22.1073 22.435C22.2272 22.2821 22.3439 22.1272 22.4576 21.9704C22.5605 21.8064 22.6602 21.6408 22.7565 21.4736C22.8429 21.2977 22.9256 21.1204 23.0049 20.942C23.0718 20.7593 23.1351 20.5755 23.1949 20.391C23.2422 20.2028 23.2859 20.0141 23.3259 19.8249C23.3534 19.6321 23.3773 19.4391 23.3974 19.246C23.4046 19.0501 23.4081 18.8544 23.4079 18.6592C23.3947 18.4638 23.3777 18.2691 23.357 18.0751C23.3235 17.8831 23.2864 17.6922 23.2459 17.5023C23.1929 17.3163 23.1364 17.1316 23.0767 16.9484C23.0045 16.7686 22.929 16.5905 22.8504 16.4143C22.7584 16.2403 22.6632 16.0683 22.5649 15.8986C22.4564 15.7371 22.3449 15.5778 22.2308 15.4211C22.1055 15.2713 21.9778 15.1242 21.8474 14.9798ZM14.6159 23.0455C16.0212 25.1105 17.9074 26.7996 20.1064 27.9689V27.4363C17.9736 26.416 16.092 24.9171 14.6159 23.0455ZM21.2465 13.9747C19.7322 12.0894 17.789 10.5818 15.5715 9.58393V10.0553C17.7324 10.9194 19.6727 12.2593 21.2465 13.9747ZM21.0007 35.7643C21.2507 35.8501 21.5064 35.9172 21.7654 35.9654C21.5576 36.1038 21.3379 36.2283 21.1074 36.3373C20.8564 36.3187 20.6075 36.282 20.3627 36.2279C20.5878 36.0884 20.8009 35.9333 21.0007 35.7643ZM5.33853 7.02676C5.08592 7.10435 4.83963 7.20026 4.60167 7.31343C4.68852 7.07951 4.79301 6.84968 4.91542 6.62593C5.12937 6.49356 5.35228 6.37695 5.58221 6.27682C5.48208 6.52192 5.40089 6.7726 5.33853 7.02676ZM34.9458 24.531C34.8889 24.6284 34.8292 24.7238 34.7666 24.8173C34.7564 24.9303 34.7427 25.0438 34.7252 25.1573C34.8113 24.9553 34.8851 24.7462 34.9458 24.531ZM34.4512 25.7081C34.4757 25.6169 34.4979 25.5246 34.5178 25.4312C34.5429 25.3133 34.5638 25.1953 34.5805 25.0777C34.4474 25.2529 34.3039 25.4198 34.1507 25.5773C34.1483 25.7965 34.1324 26.0173 34.1025 26.2383C34.2289 26.0694 34.3454 25.8924 34.4512 25.7081ZM33.9058 26.4852C33.9531 26.2345 33.9814 25.9835 33.9918 25.734C33.8004 25.9152 33.5959 26.0824 33.3797 26.2343C33.3989 26.4953 33.3992 26.7588 33.3797 27.0229C33.5674 26.8568 33.7433 26.6771 33.9058 26.4852ZM33.3587 27.245C33.5273 27.1045 33.6874 26.9538 33.8379 26.7936C33.8089 26.9088 33.7758 27.0239 33.7385 27.1387C33.7089 27.2295 33.6772 27.3191 33.6433 27.4073C33.519 27.5792 33.3849 27.7428 33.2418 27.8972C33.2946 27.6806 33.3334 27.4628 33.3587 27.245ZM33.2117 27.1656C33.2405 26.8878 33.2467 26.61 33.2312 26.3349C32.9844 26.4962 32.7237 26.6378 32.4511 26.7574C32.4998 27.0478 32.5249 27.3427 32.5255 27.6388C32.7667 27.4993 32.9961 27.341 33.2117 27.1656ZM32.5229 27.8182C32.7539 27.6898 32.975 27.5447 33.1843 27.3844C33.1479 27.6313 33.0935 27.8779 33.0204 28.1224C32.8385 28.2964 32.6447 28.4568 32.4405 28.6026C32.4875 28.3419 32.5148 28.0798 32.5229 27.8182ZM32.3703 27.7252C32.3746 27.4209 32.3524 27.1178 32.3044 26.8193C31.9997 26.9424 31.6811 27.0385 31.3517 27.1046C31.4418 27.4246 31.5023 27.7522 31.5324 28.0828C31.8229 27.9878 32.1032 27.8678 32.3703 27.7252ZM31.5444 28.2417C31.8281 28.1511 32.1024 28.0374 32.3647 27.9028C32.3514 28.178 32.3162 28.4536 32.2585 28.7269C32.0257 28.8789 31.7808 29.0124 31.5263 29.126C31.5566 28.8314 31.5625 28.5356 31.5444 28.2417ZM31.3811 28.1298C31.3526 27.7927 31.2916 27.4587 31.1989 27.1329C30.9021 27.1836 30.597 27.21 30.2859 27.21H30.0354C30.1929 27.5679 30.3101 27.94 30.3864 28.3192C30.7273 28.2882 31.0601 28.2241 31.3811 28.1298ZM30.4148 28.4719C30.7494 28.4407 31.0762 28.3784 31.3921 28.2878C31.4085 28.5897 31.3989 28.8935 31.3629 29.1957C31.0824 29.3096 30.7911 29.3997 30.4922 29.4638C30.4969 29.1317 30.4709 28.7996 30.4148 28.4719ZM30.2309 28.3309C30.1522 27.9471 30.0304 27.5708 29.8657 27.21H28.5203C28.7357 27.5503 28.9089 27.9086 29.0403 28.2778L29.3599 28.3114C29.654 28.3423 29.945 28.3483 30.2309 28.3309ZM29.0948 28.4392L29.3438 28.4653C29.6533 28.4978 29.9594 28.5035 30.2599 28.4842C30.3179 28.8179 30.3437 29.1564 30.3369 29.4947C30.0078 29.5549 29.6702 29.5838 29.3279 29.5789C29.2918 29.1939 29.2142 28.8116 29.0948 28.4392ZM28.869 28.2599C28.7336 27.896 28.5561 27.5436 28.336 27.21H26.9053L27.1144 27.4978C27.2597 27.6978 27.3893 27.9044 27.5034 28.1163L28.869 28.2599ZM27.5883 28.2809L28.9261 28.4214C29.0521 28.7975 29.1339 29.1844 29.172 29.5744C28.886 29.5618 28.5972 29.5255 28.3079 29.464L27.9938 29.3973C27.9017 29.0163 27.7669 28.6418 27.5883 28.2809ZM27.3157 28.0966C27.2178 27.9233 27.1089 27.7537 26.9891 27.5887L26.7139 27.21H25.483C25.4758 27.21 25.4686 27.21 25.4614 27.2099L25.8865 27.9464L27.3157 28.0966ZM25.9822 28.112L27.405 28.2616C27.589 28.6163 27.7287 28.9854 27.8254 29.3614L26.4822 29.0759C26.3909 28.8533 26.2836 28.6342 26.1599 28.4199L25.9822 28.112ZM25.6963 27.9263L25.2819 27.2087C24.9154 27.2039 24.5504 27.1863 24.1875 27.1558L24.4731 27.7974C24.5099 27.8015 24.5466 27.8055 24.5834 27.8094L25.6963 27.9263ZM24.546 27.9611C24.5531 27.9618 24.5602 27.9626 24.5673 27.9634L25.7919 28.092L26.0259 28.4974C26.1279 28.6739 26.2184 28.854 26.2977 29.0367L24.8919 28.7378L24.546 27.9611ZM24.9697 28.9126L25.1143 29.2374C25.2149 29.4634 25.2987 29.6925 25.3662 29.9235L26.6723 30.3479C26.6155 29.9639 26.5152 29.5822 26.3693 29.2101L24.9697 28.9126ZM26.5495 29.2484C26.6894 29.6261 26.7844 30.0126 26.8361 30.4012L27.141 30.5003C27.4225 30.5917 27.706 30.658 27.9893 30.7004C27.9922 30.3086 27.9513 29.9153 27.8653 29.5281L26.5495 29.2484ZM28.0312 29.5633C28.1109 29.9463 28.1481 30.3345 28.1439 30.7213C28.4837 30.7618 28.8224 30.7683 29.1559 30.7428C29.198 30.4071 29.2078 30.0678 29.1849 29.7299C28.884 29.7177 28.5801 29.6801 28.2757 29.6153L28.0312 29.5633ZM29.3403 29.7339C29.3619 30.0656 29.3529 30.3986 29.3135 30.7283C29.6175 30.6958 29.9164 30.6367 30.2073 30.5528C30.2748 30.256 30.316 29.9549 30.3313 29.6529C30.0077 29.71 29.6762 29.7378 29.3403 29.7339ZM30.4876 29.6229C30.4749 29.9172 30.438 30.2108 30.3771 30.5006C30.6421 30.4143 30.8995 30.307 31.1469 30.1802C31.2329 29.9144 31.2967 29.644 31.3388 29.3718C31.0638 29.4782 30.7792 29.5625 30.4876 29.6229ZM31.5049 29.3042C31.4695 29.5634 31.4149 29.8213 31.341 30.0756C31.5594 29.9518 31.7691 29.8124 31.9683 29.6583C32.0666 29.4229 32.1464 29.1834 32.2084 28.9417C31.9834 29.0793 31.7483 29.2005 31.5049 29.3042ZM32.3964 28.8213C32.3485 29.0352 32.2872 29.2477 32.212 29.4575C32.3708 29.3185 32.5216 29.1695 32.6634 29.0111C32.7061 28.9274 32.7469 28.8422 32.7855 28.7553C32.8347 28.6449 32.8797 28.5338 32.9206 28.4219C32.754 28.5657 32.5789 28.699 32.3964 28.8213ZM33.1567 28.2058C33.1234 28.3141 33.0864 28.4218 33.0459 28.5291C33.1717 28.3497 33.2871 28.161 33.3909 27.9636C33.3153 28.0469 33.2372 28.1277 33.1567 28.2058ZM32.3544 29.5383C32.2702 29.6134 32.1837 29.6859 32.0952 29.7555C32.0505 29.8601 32.0024 29.9638 31.9506 30.0667C32.0951 29.9008 32.2301 29.7244 32.3544 29.5383ZM31.5198 30.5058C31.5712 30.4269 31.6208 30.3461 31.6684 30.2635C31.7289 30.1588 31.7854 30.0528 31.8378 29.9458C31.6569 30.0715 31.4687 30.1859 31.2743 30.2884C31.2042 30.4964 31.1209 30.7016 31.024 30.9026C31.1965 30.781 31.3621 30.6486 31.5198 30.5058ZM30.7606 31.0768C30.8832 30.8528 30.9878 30.6228 31.0747 30.3885C30.8365 30.5018 30.59 30.5979 30.3373 30.6755C30.2749 30.9298 30.1936 31.1807 30.0934 31.4259C30.3234 31.3258 30.5465 31.2091 30.7606 31.0768ZM30.0048 31.6306C30.2088 31.549 30.4079 31.455 30.6008 31.349C30.5375 31.4498 30.4705 31.549 30.3995 31.6467C30.3434 31.724 30.2854 31.7993 30.2259 31.8728C30.0543 31.9981 29.8759 32.1124 29.6917 32.2152C29.809 32.0254 29.9134 31.8301 30.0048 31.6306ZM29.8895 31.5097C30.0029 31.2542 30.0946 30.9918 30.1649 30.7253C29.8804 30.8024 29.5886 30.8565 29.2924 30.8862C29.2489 31.1774 29.1816 31.4657 29.0907 31.7476C29.3631 31.6894 29.6303 31.6098 29.8895 31.5097ZM29.0328 31.9174C29.2922 31.8667 29.5472 31.797 29.7958 31.7093C29.6849 31.933 29.5569 32.1508 29.4115 32.3608C29.1849 32.4699 28.951 32.5626 28.7119 32.6381C28.8371 32.4047 28.9441 32.1638 29.0328 31.9174ZM28.9163 31.7817C29.0145 31.4936 29.087 31.1984 29.1338 30.8996C28.806 30.9226 28.4735 30.9155 28.1399 30.8766C28.1268 31.2088 28.083 31.539 28.0094 31.8628C28.315 31.8623 28.6184 31.8348 28.9163 31.7817ZM27.9719 32.0176C28.2694 32.0191 28.5652 31.9958 28.8561 31.9489C28.7584 32.2066 28.6397 32.4579 28.5003 32.7001C28.2321 32.7725 27.9582 32.8238 27.6813 32.8531C27.8012 32.5823 27.8982 32.3028 27.9719 32.0176ZM27.8511 31.8608C27.9281 31.5313 27.9734 31.1948 27.9859 30.8563C27.6878 30.8128 27.3894 30.7436 27.0933 30.6474L26.8559 30.5703C26.8952 30.9594 26.8916 31.3494 26.8469 31.7335C27.1806 31.8094 27.5168 31.8512 27.8511 31.8608ZM26.8268 31.8876C27.1544 31.9612 27.4844 32.0029 27.8127 32.0144C27.735 32.3066 27.632 32.5927 27.5043 32.8689C27.2024 32.8905 26.8979 32.8861 26.5939 32.8548C26.7009 32.5404 26.7789 32.2166 26.8268 31.8876ZM26.6954 31.6967C26.7392 31.3074 26.7396 30.9118 26.6946 30.5178L25.4151 30.1022C25.5148 30.4923 25.5687 30.8866 25.5796 31.2784L25.8728 31.4089C26.1431 31.5293 26.4181 31.6248 26.6954 31.6967ZM25.5816 31.4487L25.8099 31.5503C26.0943 31.6769 26.3838 31.7769 26.6756 31.8514C26.6278 32.1867 26.5477 32.5165 26.4366 32.8362C26.1051 32.7917 25.775 32.7149 25.4511 32.6046C25.5357 32.2273 25.58 31.8397 25.5816 31.4487ZM25.4149 32.7558C25.3329 33.0779 25.2215 33.3918 25.0822 33.6933C25.3813 33.7563 25.6839 33.7924 25.9864 33.8024C26.1423 33.5411 26.2746 33.2674 26.3824 32.9849C26.057 32.9393 25.7332 32.8632 25.4149 32.7558ZM26.5404 33.0048C26.4373 33.2806 26.3115 33.5485 26.164 33.8053C26.4425 33.805 26.7203 33.7827 26.9946 33.7386C27.1586 33.5123 27.3029 33.2748 27.4269 33.0288C27.1327 33.0451 26.8361 33.0373 26.5404 33.0048ZM27.6059 33.0159C27.492 33.2517 27.3604 33.48 27.2115 33.699C27.4572 33.6489 27.6994 33.5813 27.9361 33.4963C28.1025 33.3028 28.2525 33.0997 28.3862 32.8888C28.1299 32.95 27.8691 32.9926 27.6059 33.0159ZM28.6023 32.8324C28.4905 33.0212 28.3664 33.2044 28.23 33.3808C28.4238 33.2979 28.613 33.2029 28.7967 33.0962C28.8636 33.0295 28.9291 32.9606 28.9931 32.8895C29.0738 32.7999 29.1508 32.7083 29.2241 32.6148C29.0213 32.7 28.8135 32.7726 28.6023 32.8324ZM29.5154 32.4823C29.4501 32.5753 29.3814 32.6666 29.3094 32.7563C29.4851 32.6243 29.6537 32.48 29.8139 32.3238C29.716 32.3798 29.6164 32.4327 29.5154 32.4823ZM28.3399 33.5019C28.2367 33.5473 28.1323 33.5893 28.0268 33.6281C27.9521 33.7136 27.8743 33.7973 27.7934 33.8789C27.9818 33.7659 28.1644 33.6403 28.3399 33.5019ZM27.2479 34.1634C27.3214 34.1041 27.3936 34.0425 27.4645 33.9786C27.5542 33.8979 27.6404 33.8148 27.7232 33.7295C27.5126 33.7929 27.2985 33.8434 27.0822 33.8808C26.9514 34.0568 26.8089 34.226 26.6549 34.3872C26.8561 34.3249 27.0542 34.2503 27.2479 34.1634ZM26.3505 34.4714C26.5361 34.2964 26.7065 34.1101 26.8614 33.9143C26.6002 33.9485 26.3363 33.9636 26.072 33.9593C25.9342 34.1818 25.7794 34.3952 25.6084 34.5974C25.858 34.5732 26.1061 34.5312 26.3505 34.4714ZM25.4609 34.7647C25.6799 34.7501 25.8982 34.7222 26.1144 34.6811C26.023 34.7573 25.9285 34.8311 25.8309 34.902C25.7537 34.9581 25.6756 35.0117 25.5966 35.0628C25.3947 35.1291 25.1897 35.1827 24.9829 35.2236C25.1529 35.0794 25.3124 34.9261 25.4609 34.7647ZM25.3886 34.6141C25.5753 34.4063 25.7435 34.1852 25.8927 33.9534C25.5983 33.9389 25.3041 33.9002 25.0133 33.8368C24.8819 34.1004 24.7289 34.3537 24.5554 34.5937C24.8324 34.6225 25.1111 34.6293 25.3886 34.6141ZM24.4478 34.7373C24.7102 34.7691 24.9743 34.7817 25.2378 34.7749C25.0633 34.9534 24.8743 35.1209 24.6714 35.2756C24.422 35.3095 24.1709 35.3253 23.92 35.3233C24.1113 35.1401 24.2874 34.9441 24.4478 34.7373ZM23.7558 35.4743C23.5912 35.6194 23.4166 35.7552 23.2324 35.8808C23.4423 35.8618 23.6517 35.8299 23.8594 35.7852C23.9435 35.7424 24.0269 35.6973 24.1095 35.6495C24.2141 35.5892 24.3158 35.5258 24.4146 35.4594C24.1953 35.4778 23.9753 35.4827 23.7558 35.4743ZM24.7327 35.4233C24.6419 35.4914 24.5484 35.5571 24.4522 35.6202C24.66 35.5488 24.8648 35.4638 25.0653 35.3648C24.9549 35.3878 24.8439 35.4073 24.7327 35.4233ZM23.2995 36.0299C23.1873 36.0412 23.0749 36.049 22.9626 36.0533C22.8652 36.1115 22.7654 36.167 22.6632 36.2197C22.8773 36.1704 23.0898 36.1073 23.2995 36.0299ZM26.1688 34.8368C26.2577 34.7641 26.3438 34.6891 26.4269 34.6119C26.5358 34.5844 26.6439 34.5535 26.7512 34.5192C26.5624 34.6384 26.3678 34.7443 26.1688 34.8368ZM30.7002 31.4811C30.7625 31.3843 30.8214 31.2861 30.8767 31.1868C30.972 31.1268 31.0656 31.0638 31.1573 30.9978C31.0141 31.17 30.8614 31.3312 30.7002 31.4811ZM33.9734 26.8882C34.0026 26.7769 34.0282 26.6655 34.0501 26.554C34.1222 26.4676 34.1917 26.3788 34.2584 26.2878C34.1755 26.4957 34.0801 26.696 33.9734 26.8882ZM17.7239 36.8767C17.6138 36.8528 17.5045 36.8254 17.3964 36.7948C17.2857 36.8201 17.1736 36.842 17.0602 36.8605C17.2789 36.8798 17.5006 36.8855 17.7239 36.8767ZM16.4517 36.7701C16.5459 36.7653 16.6405 36.7579 16.7354 36.7479C16.8554 36.7354 16.9739 36.7188 17.091 36.6983C16.8833 36.6259 16.6803 36.5409 16.4832 36.444C16.2739 36.5095 16.0592 36.5626 15.8399 36.6024C16.0394 36.6703 16.2437 36.7265 16.4517 36.7701ZM15.5441 36.4916C15.7972 36.4592 16.0445 36.4086 16.2849 36.3414C15.116 35.7053 14.1791 34.638 13.7354 33.2725L12.2513 28.7048C11.4688 26.2965 11.2944 23.7578 11.7109 21.3065C11.6356 21.2976 11.56 21.2904 11.4843 21.2851C10.9625 23.4806 10.9254 25.7852 11.4036 28.0346L12.4022 32.7325C12.7764 34.4932 13.9951 35.8575 15.5441 36.4916ZM11.3272 21.2767C10.8064 23.486 10.7713 25.804 11.2523 28.0668L12.2508 32.7647C12.6153 34.4794 13.7576 35.8288 15.2299 36.5224C15.1112 36.5304 14.9914 36.5345 14.8707 36.5345C14.7753 36.5345 14.6805 36.532 14.5864 36.5269C12.673 35.9112 11.2047 34.2157 10.981 32.0881L10.479 27.3116C10.2635 25.2612 10.4644 23.21 11.0475 21.2733H11.1509C11.2098 21.2733 11.2685 21.2745 11.3272 21.2767ZM11.5213 21.1327C11.5936 21.1381 11.6658 21.1452 11.7375 21.1538C11.7624 21.0157 11.7893 20.8778 11.8179 20.7402C11.7585 20.7221 11.6987 20.7052 11.6384 20.6894C11.5972 20.8366 11.5581 20.9843 11.5213 21.1327ZM11.488 20.6528C11.4443 20.8089 11.403 20.9658 11.3642 21.1233C11.2933 21.1202 11.2221 21.1186 11.1509 21.1186H11.095C11.1486 20.9473 11.2051 20.777 11.2647 20.6077C11.3396 20.6209 11.4141 20.6359 11.488 20.6528ZM11.6809 20.5406C11.7378 20.5555 11.7942 20.5714 11.8504 20.5883C11.8765 20.4685 11.9042 20.3489 11.9333 20.2297C11.8879 20.2069 11.8422 20.1849 11.796 20.1636C11.756 20.2888 11.7177 20.4145 11.6809 20.5406ZM11.6537 20.1007C11.6108 20.2345 11.5698 20.3688 11.5305 20.5037C11.4599 20.4876 11.3889 20.4729 11.3174 20.4599C11.3696 20.3163 11.4239 20.1734 11.4803 20.0313C11.5386 20.0533 11.5964 20.0765 11.6537 20.1007ZM11.8442 20.0154C11.8869 20.035 11.9294 20.0552 11.9716 20.0759C11.9981 19.9718 12.0258 19.8678 12.0544 19.7641C12.0214 19.7401 11.9882 19.7166 11.9546 19.6934C11.9166 19.8003 11.8798 19.9078 11.8442 20.0154ZM11.8218 19.6052C11.7804 19.7207 11.7404 19.8367 11.7019 19.953C11.6477 19.9303 11.5931 19.9086 11.5381 19.8878C11.5879 19.7663 11.6391 19.6453 11.6919 19.5249C11.7357 19.551 11.7789 19.5778 11.8218 19.6052ZM12.0089 19.5431C12.0392 19.5636 12.0694 19.5845 12.0992 19.6058C12.1254 19.5152 12.1523 19.4248 12.18 19.3347C12.1579 19.3123 12.1354 19.2902 12.1127 19.2683C12.0772 19.3596 12.0426 19.4512 12.0089 19.5431ZM11.991 19.1546C11.9516 19.2548 11.9133 19.3553 11.8759 19.4563C11.8361 19.4311 11.7959 19.4066 11.7554 19.3826C11.802 19.2791 11.8499 19.1762 11.8989 19.0737C11.9299 19.1003 11.9607 19.1273 11.991 19.1546ZM12.1741 19.1129C12.1936 19.1313 12.213 19.1499 12.2323 19.1686C12.2573 19.0907 12.2829 19.0129 12.3091 18.9353C12.2959 18.9172 12.2827 18.8991 12.2694 18.8812C12.2369 18.9582 12.2052 19.0354 12.1741 19.1129ZM12.1608 18.7408C12.1237 18.8275 12.0875 18.9145 12.0521 19.0018C12.0245 18.9774 11.9967 18.9535 11.9686 18.9298C12.0117 18.842 12.0557 18.7545 12.1005 18.6675C12.1209 18.6918 12.1409 18.7162 12.1608 18.7408ZM11.9914 18.5417C11.964 18.5113 11.9363 18.4812 11.9081 18.4515C11.8487 18.5483 11.7904 18.6457 11.7331 18.7437C11.771 18.7718 11.8084 18.8004 11.8454 18.8296C11.8931 18.7332 11.9417 18.6372 11.9914 18.5417ZM11.776 18.972C11.7363 18.9403 11.696 18.9091 11.6552 18.8786C11.59 18.9928 11.5264 19.1078 11.4642 19.2236C11.5168 19.25 11.5688 19.2774 11.6203 19.3057C11.6709 19.1938 11.7228 19.0827 11.776 18.972ZM11.5569 19.4474C11.5025 19.4173 11.4474 19.3883 11.3916 19.3603C11.3207 19.4958 11.2518 19.6321 11.1849 19.7695C11.2547 19.7899 11.3239 19.8119 11.3924 19.8353C11.4455 19.7053 11.5004 19.5761 11.5569 19.4474ZM11.3345 19.9791C11.2627 19.9547 11.1902 19.9319 11.1169 19.9109C11.0401 20.0731 10.966 20.2367 10.8949 20.4014L10.9503 20.4072C11.0213 20.4147 11.0919 20.4237 11.1622 20.4342C11.2173 20.2817 11.2747 20.1299 11.3345 19.9791ZM11.1094 20.5828C11.0512 20.5745 10.9928 20.5673 10.9341 20.5611L10.8314 20.5503C10.7526 20.7383 10.6775 20.9277 10.6063 21.1186H10.933C10.9885 20.939 11.0474 20.7603 11.1094 20.5828ZM10.886 21.2733H10.5494C9.94994 22.9326 9.63494 24.698 9.63494 26.496V31.2988C9.63494 33.8865 11.5122 36.0358 13.9793 36.4589C12.2878 35.6973 11.035 34.0822 10.8271 32.1043L10.3251 27.3278C10.1091 25.2725 10.3073 23.2163 10.886 21.2733ZM10.4412 21.1186C10.5138 20.922 10.5904 20.7269 10.6708 20.5334L5.20535 19.959C2.34867 19.6588 0.248692 17.179 0.384042 14.3457C0.234967 14.8318 0.15475 15.3479 0.15475 15.8828C0.15475 18.7745 2.49888 21.1186 5.39052 21.1186H10.4412ZM0.598917 13.7692C0.5841 13.8622 0.571675 13.956 0.561725 14.0508C0.259467 16.9265 2.34573 19.5028 5.22152 19.8051L10.7337 20.3844C10.8077 20.2116 10.8849 20.0401 10.9651 19.87C10.9082 19.8557 10.8508 19.8423 10.7931 19.8301L5.15868 18.6324C2.5704 18.0823 0.8141 15.7598 0.890192 13.2054C0.782183 13.3865 0.684808 13.5748 0.598917 13.7692ZM1.06001 12.9392C0.848375 15.5251 2.58574 17.9273 5.19086 18.4811L10.8253 19.6788C10.8951 19.6936 10.9644 19.7098 11.0332 19.7277C11.1039 19.5818 11.1769 19.4368 11.2521 19.2932C11.0829 19.215 10.9084 19.1465 10.7293 19.0883L5.25089 17.3083C3.02855 16.5862 1.59592 14.5574 1.52726 12.3489C1.3579 12.5339 1.20166 12.7312 1.06001 12.9392ZM1.52498 12.1258C1.37188 12.2833 1.22831 12.4502 1.09522 12.6253C1.11203 12.5075 1.13296 12.3893 1.15808 12.2712C1.17791 12.1778 1.2001 12.0857 1.22459 11.9947C1.3303 11.8104 1.44677 11.6335 1.57307 11.4647C1.54316 11.6858 1.52732 11.9065 1.52498 12.1258ZM1.67948 12.1894C1.68235 14.3939 3.08839 16.4429 5.29872 17.1611L10.7771 18.9412C10.9648 19.0021 11.1475 19.074 11.3247 19.1562C11.3911 19.0324 11.4593 18.9095 11.529 18.7874C11.2837 18.6163 11.021 18.4674 10.7438 18.344L5.48149 16.0011C3.66105 15.1906 2.51112 13.495 2.31282 11.6467C2.08745 11.8108 1.87566 11.9923 1.67948 12.1894ZM2.29667 11.468C2.08017 11.62 1.87537 11.7875 1.68387 11.9689C1.69414 11.7194 1.7225 11.4685 1.76979 11.2177C1.93255 11.0255 2.10872 10.8455 2.29669 10.6791C2.27717 10.9433 2.27742 11.2069 2.29667 11.468ZM2.45825 11.5446C2.62398 13.373 3.74814 15.0599 5.54443 15.8598L10.8068 18.2027C11.0889 18.3283 11.3566 18.4794 11.6069 18.653C11.6688 18.5472 11.732 18.442 11.7965 18.3376C11.5112 18.0558 11.1889 17.8092 10.8358 17.6053L5.84719 14.7251C4.44596 13.9161 3.54535 12.573 3.25404 11.1014C2.975 11.2263 2.70887 11.3748 2.45825 11.5446ZM3.22542 10.9448C2.95281 11.0644 2.692 11.2061 2.44522 11.3673C2.42969 11.0922 2.43588 10.8143 2.46476 10.5364C2.68038 10.361 2.90987 10.2027 3.15104 10.0632C3.15167 10.3594 3.17674 10.6543 3.22542 10.9448ZM3.15365 9.88385C3.16182 9.6221 3.18914 9.35993 3.23617 9.09918C3.03201 9.24493 2.83813 9.40535 2.6563 9.57935C2.583 9.82385 2.52852 10.0705 2.49219 10.3176C2.70151 10.1573 2.92258 10.0123 3.15365 9.88385ZM2.31777 10.457C2.34304 10.239 2.38192 10.0211 2.43481 9.80435C2.29129 9.95926 2.15672 10.1233 2.03212 10.2958C1.99827 10.3838 1.96659 10.473 1.93714 10.5637C1.8998 10.6786 1.86666 10.7938 1.83761 10.9093C1.98844 10.7488 2.14884 10.5978 2.31777 10.457ZM1.62542 11.1489C1.64731 11.0375 1.67283 10.9262 1.70207 10.815C1.5954 11.007 1.50012 11.2073 1.41734 11.4149C1.484 11.324 1.5534 11.2353 1.62542 11.1489ZM2.2844 9.73935C2.36044 9.6556 2.439 9.57443 2.51992 9.49585C2.55345 9.38701 2.59061 9.2786 2.63147 9.17076C2.50484 9.3511 2.38877 9.54085 2.2844 9.73935ZM3.01408 8.68918C2.97097 8.77351 2.92988 8.85952 2.8909 8.94701C2.84185 9.05718 2.79691 9.16818 2.75602 9.27976C2.92266 9.13601 3.09781 9.00276 3.28035 8.88051C3.32828 8.66635 3.38974 8.45368 3.46504 8.2436C3.30646 8.38227 3.15577 8.53101 3.01408 8.68918ZM3.58194 7.9456C3.6265 7.84126 3.67461 7.73777 3.72629 7.63518C3.58211 7.80068 3.44736 7.9766 3.32326 8.16235C3.40732 8.08727 3.4936 8.01501 3.58194 7.9456ZM0.9506 12.5455C0.933125 12.6592 0.919367 12.7727 0.909233 12.8858C0.846592 12.9793 0.7868 13.0749 0.729975 13.1724C0.790633 12.957 0.864508 12.7478 0.9506 12.5455ZM15.1821 36.6804C15.2969 36.6739 15.4106 36.6638 15.5234 36.6502C15.6277 36.692 15.7335 36.7306 15.8406 36.7659C15.6175 36.7514 15.3977 36.7226 15.1821 36.6804ZM7.33519 4.20102C7.43844 4.15554 7.54302 4.11338 7.64869 4.07457C7.72336 3.98897 7.80127 3.90522 7.88219 3.82352C7.69361 3.93657 7.51086 4.06243 7.33519 4.20102ZM8.42761 3.53898C8.35427 3.59822 8.28211 3.65976 8.21128 3.72357C8.12144 3.80442 8.03511 3.88767 7.95227 3.97313C8.16302 3.90956 8.37744 3.85897 8.59402 3.82153C8.72486 3.64542 8.86744 3.47613 9.02161 3.31487C8.82002 3.37722 8.62161 3.45194 8.42761 3.53898ZM9.24961 3.09022C9.33294 3.01282 9.41919 2.93763 9.50836 2.86478C9.30877 2.95756 9.11369 3.06369 8.92436 3.18325C9.03186 3.14879 9.14036 3.11778 9.24961 3.09022ZM9.32594 3.23072C9.14027 3.40582 8.96978 3.59222 8.81477 3.78805C9.07619 3.75387 9.34027 3.73876 9.60469 3.74305C9.74261 3.52051 9.89736 3.30706 10.0684 3.10481C9.81861 3.12895 9.57044 3.17096 9.32594 3.23072ZM10.2882 3.08819C10.1015 3.29607 9.93319 3.51719 9.78402 3.74895C10.0785 3.76352 10.3727 3.80227 10.6636 3.86569C10.7949 3.60207 10.948 3.34878 11.1216 3.10877C10.8444 3.07985 10.5658 3.07304 10.2882 3.08819ZM11.2979 3.13022C11.1156 3.37384 10.9554 3.6322 10.8186 3.9019C11.1375 3.98141 11.4517 4.09091 11.757 4.2311C11.8722 3.91928 12.0158 3.6187 12.1859 3.33342C11.8949 3.23948 11.5978 3.17181 11.2979 3.13022ZM12.3358 3.38437C12.1607 3.67392 12.0138 3.97998 11.8973 4.29799C12.167 4.43144 12.4292 4.58936 12.6809 4.77221L12.8841 4.91982C12.9669 4.53759 13.0908 4.16768 13.2519 3.8161C12.9579 3.64067 12.6509 3.49684 12.3358 3.38437ZM13.3847 3.89802C13.2227 4.25481 13.1002 4.63085 13.0214 5.01954L14.1099 5.8105C14.1357 5.40866 14.2061 5.017 14.3168 4.64106L14.0771 4.42523C13.8575 4.22753 13.6258 4.05184 13.3847 3.89802ZM14.4448 4.75631C14.3405 5.13022 14.2771 5.51963 14.2591 5.91881L15.4168 6.75993V6.40346C15.4168 6.15654 15.4334 5.91349 15.4655 5.67538L14.4448 4.75631ZM14.2031 1.19557C14.3159 1.19606 14.4285 1.20008 14.5407 1.2076C14.6438 1.15981 14.7489 1.115 14.8561 1.07331C14.6379 1.09987 14.4199 1.14047 14.2031 1.19557Z" fill="black"/>
</svg>
